<svg width="32" height="32" viewBox="0 0 32 32" fill="none" xmlns="http://www.w3.org/2000/svg">
<path d="M24.0236 20.7412C25.2322 20.7412 26.2119 19.7615 26.2119 18.553C26.2119 17.3444 25.2322 16.3647 24.0236 16.3647H23.2942C23.2942 15.1562 22.3145 14.1765 21.106 14.1765H19.6472V16.3647H18.1883V14.1765H16.7295V16.3647H15.2707V14.1765H13.8119V16.3647H12.353V14.1765H10.8942C9.68568 14.1765 8.70598 15.1562 8.70598 16.3647H7.97657C6.76803 16.3647 5.78833 17.3444 5.78833 18.553C5.78833 19.7615 6.76803 20.7412 7.97657 20.7412H3.6001V22.2H28.4001V20.7412H24.0236Z" fill="#0090E2"/>
<path d="M6.8534 25.847H25.1399L26.5988 23.6588H5.39453L6.8534 25.847Z" fill="#0090E2"/>
<path d="M9.68066 12.7177H11.1395C11.1395 12.4479 11.2279 12.3484 11.4415 12.1081C11.7085 11.8077 12.112 11.3537 12.112 10.5293C12.112 9.70495 11.7085 9.25096 11.4415 8.95054C11.2279 8.71022 11.1395 8.61078 11.1395 8.341C11.1395 8.07131 11.2279 7.97186 11.4415 7.7316C11.7085 7.43122 12.112 6.97729 12.112 6.15295H10.6532C10.6532 6.42264 10.5648 6.52209 10.3512 6.76235C10.0842 7.06273 9.68066 7.51661 9.68066 8.341C9.68066 9.16538 10.0842 9.61936 10.3512 9.91978C10.5648 10.1601 10.6532 10.2595 10.6532 10.5293C10.6532 10.7991 10.5648 10.8986 10.3512 11.1389C10.0842 11.4393 9.68066 11.8933 9.68066 12.7177Z" fill="#0090E2"/>
<path d="M13.082 12.7177H14.5409C14.5409 12.4479 14.6293 12.3484 14.8429 12.1081C15.1099 11.8077 15.5134 11.3537 15.5134 10.5293C15.5134 9.70495 15.1099 9.25096 14.8429 8.95054C14.6293 8.71022 14.5409 8.61078 14.5409 8.341C14.5409 8.07131 14.6293 7.97186 14.8428 7.7316C15.1098 7.43122 15.5134 6.97729 15.5134 6.15295H14.0546C14.0546 6.42264 13.9662 6.52209 13.7526 6.76235C13.4856 7.06273 13.082 7.51661 13.082 8.341C13.082 9.16538 13.4855 9.61936 13.7526 9.91978C13.9662 10.1601 14.0546 10.2595 14.0546 10.5293C14.0546 10.7991 13.9662 10.8986 13.7526 11.1389C13.4855 11.4393 13.082 11.8933 13.082 12.7177Z" fill="#0090E2"/>
<path d="M16.4883 12.7177H17.9471C17.9471 12.4479 18.0355 12.3484 18.2491 12.1081C18.5161 11.8077 18.9197 11.3537 18.9197 10.5293C18.9197 9.70495 18.5161 9.25096 18.2491 8.95054C18.0355 8.71022 17.9471 8.61078 17.9471 8.341C17.9471 8.07131 18.0355 7.97186 18.2491 7.7316C18.5161 7.43122 18.9197 6.97729 18.9197 6.15295H17.4608C17.4608 6.42264 17.3724 6.52209 17.1588 6.76235C16.8918 7.06273 16.4883 7.51661 16.4883 8.341C16.4883 9.16538 16.8918 9.61936 17.1588 9.91978C17.3724 10.1601 17.4608 10.2595 17.4608 10.5293C17.4608 10.7991 17.3724 10.8986 17.1588 11.1389C16.8918 11.4393 16.4883 11.8933 16.4883 12.7177Z" fill="#0090E2"/>
<path d="M19.8901 12.7177H21.349C21.349 12.4479 21.4374 12.3484 21.651 12.1081C21.918 11.8077 22.3215 11.3537 22.3215 10.5293C22.3215 9.70495 21.918 9.25096 21.651 8.95054C21.4374 8.71022 21.349 8.61078 21.349 8.341C21.349 8.07131 21.4374 7.97186 21.651 7.7316C21.918 7.43122 22.3215 6.97729 22.3215 6.15295H20.8627C20.8627 6.42264 20.7743 6.52209 20.5607 6.76235C20.2936 7.06273 19.8901 7.51661 19.8901 8.341C19.8901 9.16538 20.2936 9.61936 20.5607 9.91978C20.7743 10.1601 20.8627 10.2595 20.8627 10.5293C20.8627 10.7991 20.7743 10.8986 20.5607 11.1389C20.2936 11.4393 19.8901 11.8933 19.8901 12.7177Z" fill="#0090E2"/>
</svg>
