<svg width="27" height="27" viewBox="0 0 27 27" fill="none" xmlns="http://www.w3.org/2000/svg">
<path d="M21.3079 14.1618C21.7867 14.1618 22.1748 13.7737 22.1748 13.2949C22.1748 12.8161 21.7867 12.428 21.3079 12.428C20.8291 12.428 20.441 12.8161 20.441 13.2949C20.441 13.7737 20.8291 14.1618 21.3079 14.1618Z" fill="#0090E2"/>
<path d="M26.6661 23.5875C26.6661 22.475 25.7633 21.4485 25.7633 19.4933C25.7633 17.5381 26.4407 17.3191 26.4407 13.2266C26.4407 9.93349 24.7207 6.79292 24.0492 4.85679H18.5667C17.8952 6.79292 16.1752 9.93349 16.1752 13.2266C16.1752 17.3191 16.8525 17.5381 16.8525 19.4933C16.8525 21.4485 15.9498 22.475 15.9498 23.5875C15.903 24.518 16.7543 26.5143 17.8657 26.5721H24.7496C25.861 26.5143 26.7129 24.518 26.6661 23.5875ZM21.3079 15.8956C19.874 15.8956 18.7072 14.7287 18.7072 13.2948C18.7072 11.8609 19.874 10.6941 21.3079 10.6941C22.7418 10.6941 23.9087 11.8609 23.9087 13.2948C23.9087 14.7287 22.7418 15.8956 21.3079 15.8956ZM23.7845 0.0598145H18.8314V3.12294H23.7845V0.0598145Z" fill="#0090E2"/>
<path d="M6.5579 19.19C7.03669 19.19 7.42482 18.8019 7.42482 18.3231C7.42482 17.8443 7.03669 17.4562 6.5579 17.4562C6.07911 17.4562 5.69098 17.8443 5.69098 18.3231C5.69098 18.8019 6.07911 19.19 6.5579 19.19Z" fill="#0090E2"/>
<path d="M0.576416 12.4856L2.2253 26.5875H10.8974L12.5469 12.4856H0.576416ZM6.56165 20.9236C5.12718 20.9236 3.96088 19.7568 3.96088 18.3229C3.96088 16.889 5.12718 15.7221 6.56165 15.7221C7.99554 15.7221 9.16242 16.889 9.16242 18.3229C9.16242 19.7568 7.99554 20.9236 6.56165 20.9236Z" fill="#0090E2"/>
<path d="M13.1194 7.57324L12.7478 10.752H0.371621L0 7.57324H13.1194Z" fill="#0090E2"/>
<path d="M10.5982 5.83936L11.3953 2.96996L14.9713 1.62242L14.3599 0L9.96021 1.65779L8.79865 5.83936H10.5982Z" fill="#0090E2"/>
</svg>
