<svg width="27" height="26" viewBox="0 0 59 59" fill="none" xmlns="http://www.w3.org/2000/svg">
<g id="calzone" clip-path="url(#clip0_8860_20094)">
<g id="Group">
<path id="Vector" d="M58.1327 37.0169C57.7709 35.8659 57.429 34.7788 57.429 33.8599C57.429 32.9411 57.7707 31.854 58.1326 30.7031C58.6968 28.9085 59.3363 26.8745 58.7944 24.8449C58.2604 22.8444 56.7038 21.4089 55.3303 20.1423C54.4322 19.3141 53.584 18.5319 53.1098 17.7119C52.6678 16.9474 52.426 15.8577 52.1701 14.7039C51.7587 12.8495 51.2924 10.7476 49.7723 9.22755C48.2521 7.70737 46.1502 7.24102 44.2956 6.82952C43.1417 6.57358 42.052 6.33182 41.2874 5.88978C40.4675 5.41571 39.685 4.56735 38.8569 3.66945C37.5903 2.29585 36.1546 0.739266 34.1538 0.20527C32.1241 -0.336562 30.0899 0.302989 28.2954 0.867176C27.1444 1.22913 26.0573 1.57091 25.1383 1.57091C24.2194 1.57091 23.1323 1.22913 21.9814 0.867292C20.1868 0.303104 18.153 -0.336332 16.1233 0.205501C14.1227 0.739612 12.6872 2.2962 11.4206 3.66968C10.5929 4.5677 9.81065 5.41594 8.99076 5.89001C8.22618 6.33205 7.13641 6.57381 5.98268 6.82975C4.12821 7.24114 2.02634 7.70737 0.506282 9.22743C-0.168761 9.90247 -0.168761 10.997 0.506282 11.672L6.11255 17.2783L7.33438 16.0564C12.0902 11.3006 18.4134 8.68145 25.139 8.68145C31.8648 8.68145 38.1879 11.3006 42.9436 16.0563C47.6994 20.8121 50.3185 27.1352 50.3185 33.861C50.3185 40.5867 47.6994 46.9099 42.9436 51.6656L41.7218 52.8874L47.3281 58.4937C48.0031 59.1687 49.0976 59.1687 49.7727 58.4937C51.2928 56.9735 51.7591 54.8715 52.1706 53.0172C52.4265 51.8633 52.6684 50.7736 53.1104 50.0089C53.5845 49.1889 54.4327 48.4065 55.3308 47.5784C56.7041 46.3117 58.2608 44.8761 58.7948 42.8755C59.3365 40.8456 58.697 38.8116 58.1327 37.0169Z" fill="#0090E2"/>
<path id="Vector_2" d="M40.4993 18.5006C32.0297 10.031 18.2486 10.031 9.77896 18.5006L8.55713 19.7225L39.2775 50.4428L40.4993 49.221C48.9688 40.7514 48.9689 26.9703 40.4993 18.5006ZM21.4937 20.5433C21.3064 19.6072 21.9136 18.6965 22.8496 18.5094L27.7268 17.5339C28.6629 17.3467 29.5736 17.9539 29.7607 18.8899C29.9479 19.826 29.3408 20.7367 28.4048 20.9238L23.5276 21.8993C22.5915 22.0865 21.6809 21.4793 21.4937 20.5433ZM28.3218 27.3713C28.1345 26.4352 28.7417 25.5245 29.6777 25.3374L34.5549 24.3619C35.491 24.1747 36.4017 24.7818 36.5888 25.7179C36.7761 26.6539 36.1689 27.5646 35.2328 27.7518L30.3557 28.7272C29.4195 28.9145 28.5089 28.3074 28.3218 27.3713ZM42.0609 34.5799L37.1838 35.5553C36.2477 35.7426 35.337 35.1354 35.1499 34.1994C34.9627 33.2633 35.5698 32.3526 36.5058 32.1655L41.383 31.19C42.3191 31.0028 43.2298 31.6099 43.4169 32.546C43.604 33.482 42.997 34.3926 42.0609 34.5799Z" fill="#0090E2"/>
</g>
</g>
<defs>
<clipPath id="clip0_8860_20094">
<rect width="59" height="59" fill="white"/>
</clipPath>
</defs>
</svg>
