<svg width="25" height="25" viewBox="0 0 25 25" fill="none" xmlns="http://www.w3.org/2000/svg">
<g clip-path="url(#clip0_2584_926)">
<path d="M16.0174 16.0465L16.4363 14.5702H10.7676L11.1632 16.0465H16.0174Z" fill="white"/>
<path d="M9.33116 10.1219H14.1854L14.6043 8.64563H8.93555L9.33116 10.1219Z" fill="white"/>
<path d="M1.33506 13.1383H22.1943C22.5412 13.1383 22.8223 12.8519 22.8223 12.4987V9.28532C22.8223 8.93209 22.5412 8.64575 22.1943 8.64575H16.0657L15.3877 11.0353C15.3009 11.3411 15.026 11.5516 14.7134 11.5516H8.79552C8.47907 11.5516 8.20175 11.3359 8.11841 11.025L7.48079 8.64575H1.33506C0.988199 8.6457 0.707031 8.93209 0.707031 9.28527V12.4987C0.707031 12.8519 0.988199 13.1383 1.33506 13.1383Z" fill="white"/>
<path d="M22.1943 20.4928H16.0657L15.3877 22.8824C15.3009 23.1882 15.026 23.3987 14.7134 23.3987H8.79552C8.47907 23.3987 8.20175 23.183 8.11841 22.8721L7.48079 20.4928H1.33506C0.988199 20.4928 0.707031 20.7792 0.707031 21.1324V24.3458C0.707031 24.699 0.988199 24.9854 1.33506 24.9854H22.1943C22.5412 24.9854 22.8223 24.699 22.8223 24.3458V21.1324C22.8223 20.7792 22.5411 20.4928 22.1943 20.4928Z" fill="white"/>
<path d="M24.0263 14.5703H17.8978L17.2197 16.9598C17.1329 17.2656 16.858 17.4762 16.5454 17.4762H10.6276C10.3111 17.4762 10.0338 17.2605 9.95044 16.9496L9.31282 14.5703H3.16709C2.82023 14.5703 2.53906 14.8566 2.53906 15.2099V18.4232C2.53906 18.7765 2.82023 19.0628 3.16709 19.0628H24.0263C24.3731 19.0628 24.6543 18.7765 24.6543 18.4232V15.2099C24.6543 14.8567 24.3731 14.5703 24.0263 14.5703Z" fill="white"/>
<path d="M14.6043 20.4929H8.93555L9.33121 21.9693H14.1853L14.6043 20.4929Z" fill="white"/>
<path d="M8.488 5.68084C8.87562 5.68084 9.18986 5.36081 9.18986 4.96607V4.86062C9.18986 4.40484 9.30422 3.95302 9.52063 3.55399C9.85144 2.94396 10.0263 2.25317 10.0263 1.55632V1.34208C10.0263 0.947342 9.71205 0.627319 9.32444 0.627319C8.93682 0.627319 8.62257 0.947342 8.62257 1.34208V1.55632C8.62257 2.01205 8.50821 2.46393 8.29185 2.86291C7.96099 3.47289 7.78613 4.16368 7.78613 4.86062V4.96607C7.78613 5.36081 8.10038 5.68084 8.488 5.68084Z" fill="white"/>
<path d="M11.6306 5.68071C12.0182 5.68071 12.3324 5.36069 12.3324 4.96595V4.8605C12.3324 4.40472 12.4468 3.95289 12.6632 3.55386C12.994 2.94384 13.1689 2.25304 13.1689 1.5562V1.34196C13.1689 0.94722 12.8546 0.627197 12.467 0.627197C12.0794 0.627197 11.7651 0.94722 11.7651 1.34196V1.5562C11.7651 2.01193 11.6508 2.4638 11.4344 2.86278C11.1036 3.47281 10.9287 4.1636 10.9287 4.8605V4.96595C10.9287 5.36069 11.243 5.68071 11.6306 5.68071Z" fill="white"/>
<path d="M14.7898 5.68084C15.1774 5.68084 15.4916 5.36081 15.4916 4.96607V4.86062C15.4916 4.40484 15.606 3.95302 15.8224 3.55399C16.1532 2.94396 16.3281 2.25317 16.3281 1.55632V1.34208C16.3281 0.947342 16.0138 0.627319 15.6262 0.627319C15.2386 0.627319 14.9243 0.947342 14.9243 1.34208V1.55632C14.9243 2.01205 14.81 2.46393 14.5936 2.86291C14.2627 3.47293 14.0879 4.16373 14.0879 4.86062V4.96607C14.0879 5.36081 14.4021 5.68084 14.7898 5.68084Z" fill="white"/>
</g>
<defs>
<clipPath id="clip0_2584_926">
<rect width="23.9472" height="24.3872" fill="white" transform="translate(0.707031 0.612671)"/>
</clipPath>
</defs>
</svg>
