<svg width="280" height="58" viewBox="0 0 280 58" fill="none" xmlns="http://www.w3.org/2000/svg">
<g clip-path="url(#clip0_14110_10001)">
<path d="M75.7698 19.6254H62.2354V56.2779H75.7698C85.9294 56.2779 94.1653 48.0729 94.1653 37.9516C94.1653 27.8303 85.9294 19.6254 75.7698 19.6254ZM75.1936 46.3378H72.9104V29.574H75.1936C79.8423 29.574 83.6072 33.3291 83.6072 37.9559C83.6072 42.5828 79.838 46.3378 75.1936 46.3378ZM158.133 56.2822V41.3527C158.133 39.9932 157.024 38.8882 155.66 38.8882C154.295 38.8882 153.186 39.9932 153.186 41.3527V56.2822H142.675V41.3527C142.675 39.9932 141.566 38.8882 140.202 38.8882C138.837 38.8882 137.728 39.9932 137.728 41.3527V56.2822H127.217V29.574H133.712L136.51 32.3623C138.226 30.1308 140.877 28.8101 143.698 28.7842C143.728 28.7842 143.759 28.7842 143.789 28.7842C146.523 28.7842 149.113 29.997 150.855 32.099C152.796 29.9841 155.538 28.7885 158.402 28.7885C164.017 28.7885 168.575 33.3032 168.618 38.8925L168.635 56.2865H158.125L158.133 56.2822ZM124.557 42.9238C124.557 50.7317 118.206 57.0591 110.369 57.0591C102.531 57.0591 96.1799 50.7317 96.1799 42.9238C96.1799 35.1159 102.531 28.7885 110.369 28.7885C118.206 28.7885 124.557 35.1159 124.557 42.9238ZM115.156 42.9281C115.156 41.7067 114.688 40.4852 113.757 39.5572C112.821 38.6293 111.59 38.1631 110.364 38.1631C109.138 38.1631 107.912 38.6293 106.981 39.5572C106.045 40.4895 105.581 41.7153 105.581 42.9367C105.581 44.1582 106.049 45.3797 106.981 46.3076C107.916 47.2356 109.142 47.7017 110.369 47.7017C111.595 47.7017 112.821 47.2356 113.752 46.3076C114.684 45.3754 115.152 44.1496 115.152 42.9281H115.156ZM172.119 56.2822H182.629V29.574H172.119V56.2822ZM278.081 48.2931C278.081 46.2386 277.266 44.3697 275.529 42.9238C272.072 40.3039 266.73 39.8723 265.136 39.2637C264.109 38.871 263.667 38.2624 263.667 37.7056C263.667 36.9935 264.382 36.359 265.491 36.359C267.198 36.359 267.735 37.2913 268.242 38.7501L277.596 37.533C276.17 32.4443 271.946 28.7885 265.357 28.7885C258.767 28.7885 253.382 32.4097 253.382 37.5459C253.382 39.6004 254.196 41.4693 255.934 42.9152C259.391 45.5351 264.733 45.9667 266.327 46.5752C267.354 46.968 267.796 47.5766 267.796 48.1334C267.796 48.8455 267.081 49.48 265.972 49.48C264.247 49.48 263.424 48.4657 262.822 47.1406L252.918 48.2974C254.344 53.3861 259.512 57.0461 266.102 57.0461C272.691 57.0461 278.077 53.4249 278.077 48.2887L278.081 48.2931ZM244.916 42.9238C244.916 50.7317 238.565 57.0591 230.728 57.0591C222.89 57.0591 216.539 50.7317 216.539 42.9238C216.539 35.1159 222.89 28.7885 230.728 28.7885C238.565 28.7885 244.916 35.1159 244.916 42.9238ZM235.515 42.9281C235.515 41.7067 235.047 40.4852 234.115 39.5572C233.18 38.6293 231.949 38.1631 230.723 38.1631C229.497 38.1631 228.271 38.6293 227.34 39.5572C226.404 40.4895 225.94 41.7153 225.94 42.9367C225.94 44.1582 226.408 45.3797 227.34 46.3076C228.275 47.2356 229.501 47.7017 230.728 47.7017C231.954 47.7017 233.18 47.2356 234.111 46.3076C235.043 45.3754 235.51 44.1496 235.51 42.9281H235.515ZM177.378 16.8199C175.97 16.8199 174.562 17.3551 173.488 18.4255C172.413 19.4916 171.876 20.8943 171.876 22.2971C171.876 23.6998 172.413 25.1025 173.488 26.1729C174.558 27.2433 175.966 27.7785 177.374 27.7785C178.782 27.7785 180.19 27.2433 181.264 26.1729C182.339 25.1069 182.876 23.7041 182.876 22.3014C182.876 20.8986 182.339 19.4959 181.264 18.4255C180.194 17.3551 178.786 16.8199 177.378 16.8199ZM214.017 38.8882C213.814 33.3636 209.343 28.9482 203.793 28.7885C203.693 28.7885 203.589 28.7842 203.49 28.7842C200.461 28.7842 197.567 30.0877 195.566 32.3623L192.767 29.574H186.273V56.2822H196.783V41.9915C196.783 40.1399 198.291 38.6422 200.145 38.6422C201.999 38.6422 203.507 40.1442 203.507 41.9915V56.2822H214.017V38.8882ZM247.793 36.7776C251.185 34.8268 253.048 31.4775 253.048 28.918C253.048 26.1341 250.782 23.8725 247.984 23.8725C245.185 23.8725 242.915 26.1427 242.915 28.918C242.915 31.6933 245.185 33.9679 247.984 33.9679C248.144 33.9679 248.3 33.9592 248.456 33.9463C248.308 34.8311 247.932 35.6555 247.355 36.346L247.793 36.782V36.7776Z" fill="#0090E2"/>
<path d="M75.7698 19.6254H62.2354V56.2779H75.7698C85.9294 56.2779 94.1653 48.0729 94.1653 37.9516C94.1653 27.8303 85.9294 19.6254 75.7698 19.6254ZM75.1936 46.3378H72.9104V29.574H75.1936C79.8423 29.574 83.6072 33.3291 83.6072 37.9559C83.6072 42.5828 79.838 46.3378 75.1936 46.3378ZM158.133 56.2822V41.3527C158.133 39.9932 157.024 38.8882 155.66 38.8882C154.295 38.8882 153.186 39.9932 153.186 41.3527V56.2822H142.675V41.3527C142.675 39.9932 141.566 38.8882 140.202 38.8882C138.837 38.8882 137.728 39.9932 137.728 41.3527V56.2822H127.217V29.574H133.712L136.51 32.3623C138.226 30.1308 140.877 28.8101 143.698 28.7842C143.728 28.7842 143.759 28.7842 143.789 28.7842C146.523 28.7842 149.113 29.997 150.855 32.099C152.796 29.9841 155.538 28.7885 158.402 28.7885C164.017 28.7885 168.575 33.3032 168.618 38.8925L168.635 56.2865H158.125L158.133 56.2822ZM124.557 42.9238C124.557 50.7317 118.206 57.0591 110.369 57.0591C102.531 57.0591 96.1799 50.7317 96.1799 42.9238C96.1799 35.1159 102.531 28.7885 110.369 28.7885C118.206 28.7885 124.557 35.1159 124.557 42.9238ZM115.156 42.9281C115.156 41.7067 114.688 40.4852 113.757 39.5572C112.821 38.6293 111.59 38.1631 110.364 38.1631C109.138 38.1631 107.912 38.6293 106.981 39.5572C106.045 40.4895 105.581 41.7153 105.581 42.9367C105.581 44.1582 106.049 45.3797 106.981 46.3076C107.916 47.2356 109.142 47.7017 110.369 47.7017C111.595 47.7017 112.821 47.2356 113.752 46.3076C114.684 45.3754 115.152 44.1496 115.152 42.9281H115.156ZM172.119 56.2822H182.629V29.574H172.119V56.2822ZM278.081 48.2931C278.081 46.2386 277.266 44.3697 275.529 42.9238C272.072 40.3039 266.73 39.8723 265.136 39.2637C264.109 38.871 263.667 38.2624 263.667 37.7056C263.667 36.9935 264.382 36.359 265.491 36.359C267.198 36.359 267.735 37.2913 268.242 38.7501L277.596 37.533C276.17 32.4443 271.946 28.7885 265.357 28.7885C258.767 28.7885 253.382 32.4097 253.382 37.5459C253.382 39.6004 254.196 41.4693 255.934 42.9152C259.391 45.5351 264.733 45.9667 266.327 46.5752C267.354 46.968 267.796 47.5766 267.796 48.1334C267.796 48.8455 267.081 49.48 265.972 49.48C264.247 49.48 263.424 48.4657 262.822 47.1406L252.918 48.2974C254.344 53.3861 259.512 57.0461 266.102 57.0461C272.691 57.0461 278.077 53.4249 278.077 48.2887L278.081 48.2931ZM244.916 42.9238C244.916 50.7317 238.565 57.0591 230.728 57.0591C222.89 57.0591 216.539 50.7317 216.539 42.9238C216.539 35.1159 222.89 28.7885 230.728 28.7885C238.565 28.7885 244.916 35.1159 244.916 42.9238ZM235.515 42.9281C235.515 41.7067 235.047 40.4852 234.115 39.5572C233.18 38.6293 231.949 38.1631 230.723 38.1631C229.497 38.1631 228.271 38.6293 227.34 39.5572C226.404 40.4895 225.94 41.7153 225.94 42.9367C225.94 44.1582 226.408 45.3797 227.34 46.3076C228.275 47.2356 229.501 47.7017 230.728 47.7017C231.954 47.7017 233.18 47.2356 234.111 46.3076C235.043 45.3754 235.51 44.1496 235.51 42.9281H235.515ZM177.378 16.8199C175.97 16.8199 174.562 17.3551 173.488 18.4255C172.413 19.4916 171.876 20.8943 171.876 22.2971C171.876 23.6998 172.413 25.1025 173.488 26.1729C174.558 27.2433 175.966 27.7785 177.374 27.7785C178.782 27.7785 180.19 27.2433 181.264 26.1729C182.339 25.1069 182.876 23.7041 182.876 22.3014C182.876 20.8986 182.339 19.4959 181.264 18.4255C180.194 17.3551 178.786 16.8199 177.378 16.8199ZM214.017 38.8882C213.814 33.3636 209.343 28.9482 203.793 28.7885C203.693 28.7885 203.589 28.7842 203.49 28.7842C200.461 28.7842 197.567 30.0877 195.566 32.3623L192.767 29.574H186.273V56.2822H196.783V41.9915C196.783 40.1399 198.291 38.6422 200.145 38.6422C201.999 38.6422 203.507 40.1442 203.507 41.9915V56.2822H214.017V38.8882ZM247.793 36.7776C251.185 34.8268 253.048 31.4775 253.048 28.918C253.048 26.1341 250.782 23.8725 247.984 23.8725C245.185 23.8725 242.915 26.1427 242.915 28.918C242.915 31.6933 245.185 33.9679 247.984 33.9679C248.144 33.9679 248.3 33.9592 248.456 33.9463C248.308 34.8311 247.932 35.6555 247.355 36.346L247.793 36.782V36.7776Z" fill="#0090E2"/>
<path d="M36.4268 1.03171L19.2877 18.1063L18.1743 19.2155L1.03524 36.2901C-0.342474 37.6626 -0.342474 39.8984 1.03524 41.2752L16.7879 56.9686C18.1656 58.3411 20.4098 58.3411 21.7919 56.9686L38.9309 39.894L40.0443 38.7848L57.1834 21.7102C58.5611 20.3377 58.5611 18.102 57.1834 16.7251L41.4307 1.03171C40.053 -0.340812 37.8088 -0.340812 36.4268 1.03171Z" fill="white"/>
<path d="M37.5404 2.1365L20.4014 19.2111L38.9311 37.6711L56.0702 20.5965C56.837 19.8326 56.837 18.5939 56.0702 17.8256L40.3175 2.1365C39.5507 1.37255 38.3073 1.37255 37.5361 2.1365H37.5404ZM43.5105 19.2154C43.5105 20.4757 42.9949 21.6195 42.1675 22.4395C41.3356 23.2682 40.1962 23.7775 38.9311 23.7775C37.6661 23.7775 36.518 23.2596 35.6948 22.4395C34.863 21.6108 34.3518 20.4757 34.3518 19.2154C34.3518 17.9551 34.8673 16.8199 35.6905 15.9912C36.5223 15.1625 37.6617 14.6532 38.9311 14.6532C40.2005 14.6532 41.3356 15.1669 42.1675 15.9912C42.9906 16.8113 43.5105 17.9551 43.5105 19.2154Z" fill="#FF0000"/>
<path d="M2.14446 37.3992C1.37763 38.1631 1.37763 39.4018 2.14446 40.1701L17.8971 55.8635C18.664 56.6275 19.9074 56.6275 20.6786 55.8635L37.8176 38.789L19.2879 20.3289L2.14446 37.3992ZM17.3816 38.7846C17.3816 40.0449 16.866 41.1887 16.0385 42.0088C15.2067 42.8375 14.0673 43.3468 12.8022 43.3468C11.5372 43.3468 10.3891 42.8288 9.5659 42.0088C8.74274 41.1887 8.22285 40.0449 8.22285 38.7846C8.22285 37.5243 8.73841 36.3892 9.56157 35.5605C10.3934 34.7318 11.5328 34.2225 12.8022 34.2225C14.0673 34.2225 15.2067 34.7361 16.0385 35.5605C16.8617 36.3806 17.3816 37.5243 17.3816 38.7846ZM30.3572 38.776C30.3572 40.0363 29.8416 41.1801 29.0141 42.0002C28.1823 42.8288 27.0429 43.3382 25.7778 43.3382C24.5128 43.3382 23.3647 42.8202 22.5415 42.0002C21.7183 41.1801 21.1985 40.0363 21.1985 38.776C21.1985 37.5157 21.714 36.3806 22.5372 35.5519C23.369 34.7232 24.5084 34.2139 25.7778 34.2139C27.0429 34.2139 28.1823 34.7275 29.0141 35.5519C29.8373 36.3719 30.3572 37.5157 30.3572 38.776Z" fill="#0090E2"/>
<path d="M275.178 28.8058C275.178 30.1999 276.287 31.2142 277.595 31.2142C278.904 31.2142 280 30.1956 280 28.8058C280 27.416 278.891 26.4103 277.595 26.4103C276.3 26.4103 275.178 27.4289 275.178 28.8058ZM277.595 30.83C276.49 30.83 275.637 29.9798 275.637 28.8101C275.637 27.6404 276.49 26.8031 277.595 26.8031C278.7 26.8031 279.54 27.6663 279.54 28.8101C279.54 29.9539 278.687 30.83 277.595 30.83ZM278.691 28.2188C278.691 27.675 278.371 27.4289 277.717 27.4289H276.664V30.1999H277.088V28.9957H277.561L278.293 30.1999H278.756L277.972 28.9827C278.384 28.931 278.691 28.7151 278.691 28.2188ZM277.088 28.6461V27.7785H277.66C278.141 27.7785 278.271 27.9296 278.271 28.1929C278.271 28.4993 278.102 28.6461 277.591 28.6461H277.093H277.088Z" fill="#0090E2"/>
</g>
<defs>
<clipPath id="clip0_14110_10001">
<rect width="280" height="58" fill="white"/>
</clipPath>
</defs>
</svg>
