<?xml version="1.0" encoding="UTF-8" standalone="no"?>
<svg
   width="280"
   height="58"
   viewBox="0 0 280 58"
   fill="none"
   version="1.1"
   id="svg6"
   sodipodi:docname="Domino1.svg"
   inkscape:version="1.4.4 (dcaf3e7, 2026-05-05)"
   xmlns:inkscape="http://www.inkscape.org/namespaces/inkscape"
   xmlns:sodipodi="http://sodipodi.sourceforge.net/DTD/sodipodi-0.dtd"
   xmlns="http://www.w3.org/2000/svg"
   xmlns:svg="http://www.w3.org/2000/svg">
  <sodipodi:namedview
     id="namedview6"
     pagecolor="#ffffff"
     bordercolor="#000000"
     borderopacity="0.25"
     inkscape:showpageshadow="2"
     inkscape:pageopacity="0.0"
     inkscape:pagecheckerboard="0"
     inkscape:deskcolor="#d1d1d1"
     inkscape:zoom="6.3142857"
     inkscape:cx="57.647059"
     inkscape:cy="29.061086"
     inkscape:window-width="1920"
     inkscape:window-height="986"
     inkscape:window-x="-11"
     inkscape:window-y="-11"
     inkscape:window-maximized="1"
     inkscape:current-layer="svg6" />
  <g
     clip-path="url(#clip0_14110_10001)"
     id="g6"
     transform="translate(-50.995475,-0.95022624)">
    <path
       d="M 75.7698,19.6254 H 62.2354 v 36.6525 h 13.5344 c 10.1596,0 18.3955,-8.205 18.3955,-18.3263 0,-10.1213 -8.2359,-18.3262 -18.3955,-18.3262 z M 75.1936,46.3378 H 72.9104 V 29.574 h 2.2832 c 4.6487,0 8.4136,3.7551 8.4136,8.3819 0,4.6269 -3.7692,8.3819 -8.4136,8.3819 z m 82.9394,9.9444 V 41.3527 c 0,-1.3595 -1.109,-2.4645 -2.473,-2.4645 -1.365,0 -2.474,1.105 -2.474,2.4645 V 56.2822 H 142.675 V 41.3527 c 0,-1.3595 -1.109,-2.4645 -2.473,-2.4645 -1.365,0 -2.474,1.105 -2.474,2.4645 V 56.2822 H 127.217 V 29.574 h 6.495 l 2.798,2.7883 c 1.716,-2.2315 4.367,-3.5522 7.188,-3.5781 0.03,0 0.061,0 0.091,0 2.734,0 5.324,1.2128 7.066,3.3148 1.941,-2.1149 4.683,-3.3105 7.547,-3.3105 5.615,0 10.173,4.5147 10.216,10.104 l 0.017,17.394 h -10.51 z M 124.557,42.9238 c 0,7.8079 -6.351,14.1353 -14.188,14.1353 -7.838,0 -14.1891,-6.3274 -14.1891,-14.1353 0,-7.8079 6.3511,-14.1353 14.1891,-14.1353 7.837,0 14.188,6.3274 14.188,14.1353 z m -9.401,0.0043 c 0,-1.2214 -0.468,-2.4429 -1.399,-3.3709 -0.936,-0.9279 -2.167,-1.3941 -3.393,-1.3941 -1.226,0 -2.452,0.4662 -3.383,1.3941 -0.936,0.9323 -1.4,2.1581 -1.4,3.3795 0,1.2215 0.468,2.443 1.4,3.3709 0.935,0.928 2.161,1.3941 3.388,1.3941 1.226,0 2.452,-0.4661 3.383,-1.3941 0.932,-0.9322 1.4,-2.158 1.4,-3.3795 z m 56.963,13.3541 h 10.51 V 29.574 h -10.51 z m 105.962,-7.9891 c 0,-2.0545 -0.815,-3.9234 -2.552,-5.3693 -3.457,-2.6199 -8.799,-3.0515 -10.393,-3.6601 -1.027,-0.3927 -1.469,-1.0013 -1.469,-1.5581 0,-0.7121 0.715,-1.3466 1.824,-1.3466 1.707,0 2.244,0.9323 2.751,2.3911 l 9.354,-1.2171 c -1.426,-5.0887 -5.65,-8.7445 -12.239,-8.7445 -6.59,0 -11.975,3.6212 -11.975,8.7574 0,2.0545 0.814,3.9234 2.552,5.3693 3.457,2.6199 8.799,3.0515 10.393,3.66 1.027,0.3928 1.469,1.0014 1.469,1.5582 0,0.7121 -0.715,1.3466 -1.824,1.3466 -1.725,0 -2.548,-1.0143 -3.15,-2.3394 l -9.904,1.1568 c 1.426,5.0887 6.594,8.7487 13.184,8.7487 6.589,0 11.975,-3.6212 11.975,-8.7574 z m -33.165,-5.3693 c 0,7.8079 -6.351,14.1353 -14.188,14.1353 -7.838,0 -14.189,-6.3274 -14.189,-14.1353 0,-7.8079 6.351,-14.1353 14.189,-14.1353 7.837,0 14.188,6.3274 14.188,14.1353 z m -9.401,0.0043 c 0,-1.2214 -0.468,-2.4429 -1.4,-3.3709 -0.935,-0.9279 -2.166,-1.3941 -3.392,-1.3941 -1.226,0 -2.452,0.4662 -3.383,1.3941 -0.936,0.9323 -1.4,2.1581 -1.4,3.3795 0,1.2215 0.468,2.443 1.4,3.3709 0.935,0.928 2.161,1.3941 3.388,1.3941 1.226,0 2.452,-0.4661 3.383,-1.3941 0.932,-0.9322 1.399,-2.158 1.399,-3.3795 z M 177.378,16.8199 c -1.408,0 -2.816,0.5352 -3.89,1.6056 -1.075,1.0661 -1.612,2.4688 -1.612,3.8716 0,1.4027 0.537,2.8054 1.612,3.8758 1.07,1.0704 2.478,1.6056 3.886,1.6056 1.408,0 2.816,-0.5352 3.89,-1.6056 1.075,-1.066 1.612,-2.4688 1.612,-3.8715 0,-1.4028 -0.537,-2.8055 -1.612,-3.8759 -1.07,-1.0704 -2.478,-1.6056 -3.886,-1.6056 z m 36.639,22.0683 c -0.203,-5.5246 -4.674,-9.94 -10.224,-10.0997 -0.1,0 -0.204,-0.0043 -0.303,-0.0043 -3.029,0 -5.923,1.3035 -7.924,3.5781 l -2.799,-2.7883 h -6.494 v 26.7082 h 10.51 V 41.9915 c 0,-1.8516 1.508,-3.3493 3.362,-3.3493 1.854,0 3.362,1.502 3.362,3.3493 v 14.2907 h 10.51 z m 33.776,-2.1106 c 3.392,-1.9508 5.255,-5.3001 5.255,-7.8596 0,-2.7839 -2.266,-5.0455 -5.064,-5.0455 -2.799,0 -5.069,2.2702 -5.069,5.0455 0,2.7753 2.27,5.0499 5.069,5.0499 0.16,0 0.316,-0.0087 0.472,-0.0216 -0.148,0.8848 -0.524,1.7092 -1.101,2.3997 l 0.438,0.436 z"
       fill="#0090e2"
       id="path1" />
    <path
       d="M 75.7698,19.6254 H 62.2354 v 36.6525 h 13.5344 c 10.1596,0 18.3955,-8.205 18.3955,-18.3263 0,-10.1213 -8.2359,-18.3262 -18.3955,-18.3262 z M 75.1936,46.3378 H 72.9104 V 29.574 h 2.2832 c 4.6487,0 8.4136,3.7551 8.4136,8.3819 0,4.6269 -3.7692,8.3819 -8.4136,8.3819 z m 82.9394,9.9444 V 41.3527 c 0,-1.3595 -1.109,-2.4645 -2.473,-2.4645 -1.365,0 -2.474,1.105 -2.474,2.4645 V 56.2822 H 142.675 V 41.3527 c 0,-1.3595 -1.109,-2.4645 -2.473,-2.4645 -1.365,0 -2.474,1.105 -2.474,2.4645 V 56.2822 H 127.217 V 29.574 h 6.495 l 2.798,2.7883 c 1.716,-2.2315 4.367,-3.5522 7.188,-3.5781 0.03,0 0.061,0 0.091,0 2.734,0 5.324,1.2128 7.066,3.3148 1.941,-2.1149 4.683,-3.3105 7.547,-3.3105 5.615,0 10.173,4.5147 10.216,10.104 l 0.017,17.394 h -10.51 z M 124.557,42.9238 c 0,7.8079 -6.351,14.1353 -14.188,14.1353 -7.838,0 -14.1891,-6.3274 -14.1891,-14.1353 0,-7.8079 6.3511,-14.1353 14.1891,-14.1353 7.837,0 14.188,6.3274 14.188,14.1353 z m -9.401,0.0043 c 0,-1.2214 -0.468,-2.4429 -1.399,-3.3709 -0.936,-0.9279 -2.167,-1.3941 -3.393,-1.3941 -1.226,0 -2.452,0.4662 -3.383,1.3941 -0.936,0.9323 -1.4,2.1581 -1.4,3.3795 0,1.2215 0.468,2.443 1.4,3.3709 0.935,0.928 2.161,1.3941 3.388,1.3941 1.226,0 2.452,-0.4661 3.383,-1.3941 0.932,-0.9322 1.4,-2.158 1.4,-3.3795 z m 56.963,13.3541 h 10.51 V 29.574 h -10.51 z m 105.962,-7.9891 c 0,-2.0545 -0.815,-3.9234 -2.552,-5.3693 -3.457,-2.6199 -8.799,-3.0515 -10.393,-3.6601 -1.027,-0.3927 -1.469,-1.0013 -1.469,-1.5581 0,-0.7121 0.715,-1.3466 1.824,-1.3466 1.707,0 2.244,0.9323 2.751,2.3911 l 9.354,-1.2171 c -1.426,-5.0887 -5.65,-8.7445 -12.239,-8.7445 -6.59,0 -11.975,3.6212 -11.975,8.7574 0,2.0545 0.814,3.9234 2.552,5.3693 3.457,2.6199 8.799,3.0515 10.393,3.66 1.027,0.3928 1.469,1.0014 1.469,1.5582 0,0.7121 -0.715,1.3466 -1.824,1.3466 -1.725,0 -2.548,-1.0143 -3.15,-2.3394 l -9.904,1.1568 c 1.426,5.0887 6.594,8.7487 13.184,8.7487 6.589,0 11.975,-3.6212 11.975,-8.7574 z m -33.165,-5.3693 c 0,7.8079 -6.351,14.1353 -14.188,14.1353 -7.838,0 -14.189,-6.3274 -14.189,-14.1353 0,-7.8079 6.351,-14.1353 14.189,-14.1353 7.837,0 14.188,6.3274 14.188,14.1353 z m -9.401,0.0043 c 0,-1.2214 -0.468,-2.4429 -1.4,-3.3709 -0.935,-0.9279 -2.166,-1.3941 -3.392,-1.3941 -1.226,0 -2.452,0.4662 -3.383,1.3941 -0.936,0.9323 -1.4,2.1581 -1.4,3.3795 0,1.2215 0.468,2.443 1.4,3.3709 0.935,0.928 2.161,1.3941 3.388,1.3941 1.226,0 2.452,-0.4661 3.383,-1.3941 0.932,-0.9322 1.399,-2.158 1.399,-3.3795 z M 177.378,16.8199 c -1.408,0 -2.816,0.5352 -3.89,1.6056 -1.075,1.0661 -1.612,2.4688 -1.612,3.8716 0,1.4027 0.537,2.8054 1.612,3.8758 1.07,1.0704 2.478,1.6056 3.886,1.6056 1.408,0 2.816,-0.5352 3.89,-1.6056 1.075,-1.066 1.612,-2.4688 1.612,-3.8715 0,-1.4028 -0.537,-2.8055 -1.612,-3.8759 -1.07,-1.0704 -2.478,-1.6056 -3.886,-1.6056 z m 36.639,22.0683 c -0.203,-5.5246 -4.674,-9.94 -10.224,-10.0997 -0.1,0 -0.204,-0.0043 -0.303,-0.0043 -3.029,0 -5.923,1.3035 -7.924,3.5781 l -2.799,-2.7883 h -6.494 v 26.7082 h 10.51 V 41.9915 c 0,-1.8516 1.508,-3.3493 3.362,-3.3493 1.854,0 3.362,1.502 3.362,3.3493 v 14.2907 h 10.51 z m 33.776,-2.1106 c 3.392,-1.9508 5.255,-5.3001 5.255,-7.8596 0,-2.7839 -2.266,-5.0455 -5.064,-5.0455 -2.799,0 -5.069,2.2702 -5.069,5.0455 0,2.7753 2.27,5.0499 5.069,5.0499 0.16,0 0.316,-0.0087 0.472,-0.0216 -0.148,0.8848 -0.524,1.7092 -1.101,2.3997 l 0.438,0.436 z"
       fill="#0090e2"
       id="path2" />
    <path
       d="M 36.4268,1.03171 19.2877,18.1063 18.1743,19.2155 1.03524,36.2901 c -1.377714,1.3725 -1.377714,3.6083 0,4.9851 L 16.7879,56.9686 c 1.3777,1.3725 3.6219,1.3725 5.004,0 L 38.9309,39.894 40.0443,38.7848 57.1834,21.7102 c 1.3777,-1.3725 1.3777,-3.6082 0,-4.9851 L 41.4307,1.03171 c -1.3777,-1.372522 -3.6219,-1.372522 -5.0039,0 z"
       fill="#ffffff"
       id="path3" />
    <path
       d="m 37.5404,2.1365 -17.139,17.0746 18.5297,18.46 17.1391,-17.0746 c 0.7668,-0.7639 0.7668,-2.0026 0,-2.7709 L 40.3175,2.1365 c -0.7668,-0.76395 -2.0102,-0.76395 -2.7814,0 z m 5.9701,17.0789 c 0,1.2603 -0.5156,2.4041 -1.343,3.2241 -0.8319,0.8287 -1.9713,1.338 -3.2364,1.338 -1.265,0 -2.4131,-0.5179 -3.2363,-1.338 -0.8318,-0.8287 -1.343,-1.9638 -1.343,-3.2241 0,-1.2603 0.5155,-2.3955 1.3387,-3.2242 0.8318,-0.8287 1.9712,-1.338 3.2406,-1.338 1.2694,0 2.4045,0.5137 3.2364,1.338 0.8231,0.8201 1.343,1.9639 1.343,3.2242 z"
       fill="#ff0000"
       id="path4" />
    <path
       d="m 2.14446,37.3992 c -0.76683,0.7639 -0.76683,2.0026 0,2.7709 L 17.8971,55.8635 c 0.7669,0.764 2.0103,0.764 2.7815,0 L 37.8176,38.789 19.2879,20.3289 Z m 15.23714,1.3854 c 0,1.2603 -0.5156,2.4041 -1.3431,3.2242 -0.8318,0.8287 -1.9712,1.338 -3.2363,1.338 -1.265,0 -2.4131,-0.518 -3.2363,-1.338 -0.82316,-0.8201 -1.34305,-1.9639 -1.34305,-3.2242 0,-1.2603 0.51556,-2.3954 1.33872,-3.2241 0.83183,-0.8287 1.97123,-1.338 3.24063,-1.338 1.2651,0 2.4045,0.5136 3.2363,1.338 0.8232,0.8201 1.3431,1.9638 1.3431,3.2241 z M 30.3572,38.776 c 0,1.2603 -0.5156,2.4041 -1.3431,3.2242 -0.8318,0.8286 -1.9712,1.338 -3.2363,1.338 -1.265,0 -2.4131,-0.518 -3.2363,-1.338 -0.8232,-0.8201 -1.343,-1.9639 -1.343,-3.2242 0,-1.2603 0.5155,-2.3954 1.3387,-3.2241 0.8318,-0.8287 1.9712,-1.338 3.2406,-1.338 1.2651,0 2.4045,0.5136 3.2363,1.338 0.8232,0.82 1.3431,1.9638 1.3431,3.2241 z"
       fill="#0090e2"
       id="path5" />
    <path
       d="m 275.178,28.8058 c 0,1.3941 1.109,2.4084 2.417,2.4084 1.309,0 2.405,-1.0186 2.405,-2.4084 0,-1.3898 -1.109,-2.3955 -2.405,-2.3955 -1.295,0 -2.417,1.0186 -2.417,2.3955 z m 2.417,2.0242 c -1.105,0 -1.958,-0.8502 -1.958,-2.0199 0,-1.1697 0.853,-2.007 1.958,-2.007 1.105,0 1.945,0.8632 1.945,2.007 0,1.1438 -0.853,2.0199 -1.945,2.0199 z m 1.096,-2.6112 c 0,-0.5438 -0.32,-0.7899 -0.974,-0.7899 h -1.053 v 2.771 h 0.424 v -1.2042 h 0.473 l 0.732,1.2042 h 0.463 l -0.784,-1.2172 c 0.412,-0.0517 0.719,-0.2676 0.719,-0.7639 z m -1.603,0.4273 v -0.8676 h 0.572 c 0.481,0 0.611,0.1511 0.611,0.4144 0,0.3064 -0.169,0.4532 -0.68,0.4532 h -0.498 z"
       fill="#0090e2"
       id="path6" />
  </g>
  <defs
     id="defs6">
    <clipPath
       id="clip0_14110_10001">
      <rect
         width="280"
         height="58"
         fill="white"
         id="rect6" />
    </clipPath>
  </defs>
</svg>
