<svg width="279" height="58" viewBox="0 0 279 58" fill="none" xmlns="http://www.w3.org/2000/svg">
<g clip-path="url(#clip0_14110_8801)">
<path d="M75.4993 19.6254H62.0132V56.2779H75.4993C85.6226 56.2779 93.8291 48.073 93.8291 37.9517C93.8291 27.8304 85.6226 19.6254 75.4993 19.6254ZM74.9252 46.3379H72.6501V29.5741H74.9252C79.5573 29.5741 83.3087 33.3291 83.3087 37.956C83.3087 42.5829 79.5529 46.3379 74.9252 46.3379ZM157.569 56.2822V41.3528C157.569 39.9932 156.464 38.8883 155.104 38.8883C153.744 38.8883 152.639 39.9932 152.639 41.3528V56.2822H142.166V41.3528C142.166 39.9932 141.061 38.8883 139.701 38.8883C138.341 38.8883 137.236 39.9932 137.236 41.3528V56.2822H126.763V29.5741H133.234L136.023 32.3623C137.732 30.1309 140.374 28.8101 143.185 28.7842C143.215 28.7842 143.245 28.7842 143.275 28.7842C145.999 28.7842 148.581 29.9971 150.316 32.099C152.25 29.9841 154.983 28.7885 157.836 28.7885C163.431 28.7885 167.973 33.3032 168.016 38.8926L168.033 56.2865H157.56L157.569 56.2822ZM124.112 42.9238C124.112 50.7317 117.784 57.0591 109.974 57.0591C102.165 57.0591 95.8365 50.7317 95.8365 42.9238C95.8365 35.116 102.165 28.7885 109.974 28.7885C117.784 28.7885 124.112 35.116 124.112 42.9238ZM114.745 42.9281C114.745 41.7067 114.278 40.4852 113.35 39.5573C112.418 38.6293 111.192 38.1632 109.97 38.1632C108.748 38.1632 107.527 38.6293 106.599 39.5573C105.666 40.4895 105.204 41.7153 105.204 42.9368C105.204 44.1582 105.67 45.3797 106.599 46.3077C107.531 47.2356 108.753 47.7018 109.974 47.7018C111.196 47.7018 112.418 47.2356 113.346 46.3077C114.274 45.3754 114.74 44.1496 114.74 42.9281H114.745ZM171.504 56.2822H181.977V29.5741H171.504V56.2822ZM277.088 48.2931C277.088 46.2386 276.276 44.3697 274.545 42.9238C271.1 40.3039 265.777 39.8723 264.189 39.2638C263.166 38.871 262.725 38.2624 262.725 37.7056C262.725 36.9935 263.438 36.359 264.543 36.359C266.244 36.359 266.779 37.2913 267.284 38.7501L276.604 37.533C275.184 32.4443 270.975 28.7885 264.409 28.7885C257.843 28.7885 252.477 32.4098 252.477 37.5459C252.477 39.6004 253.288 41.4693 255.02 42.9152C258.465 45.5351 263.787 45.9667 265.376 46.5753C266.399 46.968 266.839 47.5766 266.839 48.1334C266.839 48.8455 266.127 49.48 265.022 49.48C263.304 49.48 262.484 48.4657 261.884 47.1407L252.015 48.2974C253.435 53.3861 258.585 57.0462 265.151 57.0462C271.718 57.0462 277.083 53.4249 277.083 48.2888L277.088 48.2931ZM244.042 42.9238C244.042 50.7317 237.713 57.0591 229.904 57.0591C222.094 57.0591 215.766 50.7317 215.766 42.9238C215.766 35.116 222.094 28.7885 229.904 28.7885C237.713 28.7885 244.042 35.116 244.042 42.9238ZM234.674 42.9281C234.674 41.7067 234.208 40.4852 233.279 39.5573C232.347 38.6293 231.121 38.1632 229.899 38.1632C228.678 38.1632 227.456 38.6293 226.528 39.5573C225.595 40.4895 225.133 41.7153 225.133 42.9368C225.133 44.1582 225.6 45.3797 226.528 46.3077C227.46 47.2356 228.682 47.7018 229.904 47.7018C231.125 47.7018 232.347 47.2356 233.275 46.3077C234.203 45.3754 234.669 44.1496 234.669 42.9281H234.674ZM176.745 16.8199C175.342 16.8199 173.939 17.3551 172.868 18.4255C171.797 19.4916 171.262 20.8944 171.262 22.2971C171.262 23.6998 171.797 25.1026 172.868 26.173C173.934 27.2434 175.337 27.7786 176.74 27.7786C178.143 27.7786 179.546 27.2434 180.617 26.173C181.688 25.1069 182.223 23.7042 182.223 22.3014C182.223 20.8987 181.688 19.4959 180.617 18.4255C179.551 17.3551 178.148 16.8199 176.745 16.8199ZM213.253 38.8883C213.05 33.3636 208.595 28.9482 203.065 28.7885C202.966 28.7885 202.862 28.7842 202.763 28.7842C199.745 28.7842 196.862 30.0877 194.867 32.3623L192.078 29.5741H185.607V56.2822H196.08V41.9915C196.08 40.1399 197.583 38.6422 199.43 38.6422C201.278 38.6422 202.78 40.1442 202.78 41.9915V56.2822H213.253V38.8883ZM246.908 36.7777C250.288 34.8268 252.145 31.4775 252.145 28.918C252.145 26.1341 249.887 23.8725 247.098 23.8725C244.309 23.8725 242.047 26.1428 242.047 28.918C242.047 31.6933 244.309 33.9679 247.098 33.9679C247.258 33.9679 247.413 33.9593 247.569 33.9463C247.422 34.8311 247.046 35.6555 246.472 36.3461L246.908 36.782V36.7777Z" fill="white"/>
<path d="M75.4993 19.6254H62.0132V56.2779H75.4993C85.6226 56.2779 93.8291 48.073 93.8291 37.9517C93.8291 27.8304 85.6226 19.6254 75.4993 19.6254ZM74.9252 46.3379H72.6501V29.5741H74.9252C79.5573 29.5741 83.3087 33.3291 83.3087 37.956C83.3087 42.5829 79.5529 46.3379 74.9252 46.3379ZM157.569 56.2822V41.3528C157.569 39.9932 156.464 38.8883 155.104 38.8883C153.744 38.8883 152.639 39.9932 152.639 41.3528V56.2822H142.166V41.3528C142.166 39.9932 141.061 38.8883 139.701 38.8883C138.341 38.8883 137.236 39.9932 137.236 41.3528V56.2822H126.763V29.5741H133.234L136.023 32.3623C137.732 30.1309 140.374 28.8101 143.185 28.7842C143.215 28.7842 143.245 28.7842 143.275 28.7842C145.999 28.7842 148.581 29.9971 150.316 32.099C152.25 29.9841 154.983 28.7885 157.836 28.7885C163.431 28.7885 167.973 33.3032 168.016 38.8926L168.033 56.2865H157.56L157.569 56.2822ZM124.112 42.9238C124.112 50.7317 117.784 57.0591 109.974 57.0591C102.165 57.0591 95.8365 50.7317 95.8365 42.9238C95.8365 35.116 102.165 28.7885 109.974 28.7885C117.784 28.7885 124.112 35.116 124.112 42.9238ZM114.745 42.9281C114.745 41.7067 114.278 40.4852 113.35 39.5573C112.418 38.6293 111.192 38.1632 109.97 38.1632C108.748 38.1632 107.527 38.6293 106.599 39.5573C105.666 40.4895 105.204 41.7153 105.204 42.9368C105.204 44.1582 105.67 45.3797 106.599 46.3077C107.531 47.2356 108.753 47.7018 109.974 47.7018C111.196 47.7018 112.418 47.2356 113.346 46.3077C114.274 45.3754 114.74 44.1496 114.74 42.9281H114.745ZM171.504 56.2822H181.977V29.5741H171.504V56.2822ZM277.088 48.2931C277.088 46.2386 276.276 44.3697 274.545 42.9238C271.1 40.3039 265.777 39.8723 264.189 39.2638C263.166 38.871 262.725 38.2624 262.725 37.7056C262.725 36.9935 263.438 36.359 264.543 36.359C266.244 36.359 266.779 37.2913 267.284 38.7501L276.604 37.533C275.184 32.4443 270.975 28.7885 264.409 28.7885C257.843 28.7885 252.477 32.4098 252.477 37.5459C252.477 39.6004 253.288 41.4693 255.02 42.9152C258.465 45.5351 263.787 45.9667 265.376 46.5753C266.399 46.968 266.839 47.5766 266.839 48.1334C266.839 48.8455 266.127 49.48 265.022 49.48C263.304 49.48 262.484 48.4657 261.884 47.1407L252.015 48.2974C253.435 53.3861 258.585 57.0462 265.151 57.0462C271.718 57.0462 277.083 53.4249 277.083 48.2888L277.088 48.2931ZM244.042 42.9238C244.042 50.7317 237.713 57.0591 229.904 57.0591C222.094 57.0591 215.766 50.7317 215.766 42.9238C215.766 35.116 222.094 28.7885 229.904 28.7885C237.713 28.7885 244.042 35.116 244.042 42.9238ZM234.674 42.9281C234.674 41.7067 234.208 40.4852 233.279 39.5573C232.347 38.6293 231.121 38.1632 229.899 38.1632C228.678 38.1632 227.456 38.6293 226.528 39.5573C225.595 40.4895 225.133 41.7153 225.133 42.9368C225.133 44.1582 225.6 45.3797 226.528 46.3077C227.46 47.2356 228.682 47.7018 229.904 47.7018C231.125 47.7018 232.347 47.2356 233.275 46.3077C234.203 45.3754 234.669 44.1496 234.669 42.9281H234.674ZM176.745 16.8199C175.342 16.8199 173.939 17.3551 172.868 18.4255C171.797 19.4916 171.262 20.8944 171.262 22.2971C171.262 23.6998 171.797 25.1026 172.868 26.173C173.934 27.2434 175.337 27.7786 176.74 27.7786C178.143 27.7786 179.546 27.2434 180.617 26.173C181.688 25.1069 182.223 23.7042 182.223 22.3014C182.223 20.8987 181.688 19.4959 180.617 18.4255C179.551 17.3551 178.148 16.8199 176.745 16.8199ZM213.253 38.8883C213.05 33.3636 208.595 28.9482 203.065 28.7885C202.966 28.7885 202.862 28.7842 202.763 28.7842C199.745 28.7842 196.862 30.0877 194.867 32.3623L192.078 29.5741H185.607V56.2822H196.08V41.9915C196.08 40.1399 197.583 38.6422 199.43 38.6422C201.278 38.6422 202.78 40.1442 202.78 41.9915V56.2822H213.253V38.8883ZM246.908 36.7777C250.288 34.8268 252.145 31.4775 252.145 28.918C252.145 26.1341 249.887 23.8725 247.098 23.8725C244.309 23.8725 242.047 26.1428 242.047 28.918C242.047 31.6933 244.309 33.9679 247.098 33.9679C247.258 33.9679 247.413 33.9593 247.569 33.9463C247.422 34.8311 247.046 35.6555 246.472 36.3461L246.908 36.782V36.7777Z" fill="white"/>
<path d="M36.2972 1.03171L19.2193 18.1063L18.1099 19.2155L1.03203 36.2901C-0.340756 37.6626 -0.340756 39.8984 1.03203 41.2752L16.7285 56.9686C18.1012 58.3411 20.3374 58.3411 21.7145 56.9686L38.7924 39.894L39.9018 38.7848L56.9797 21.7102C58.3525 20.3377 58.3525 18.102 56.9797 16.7251L41.2833 1.03171C39.9105 -0.340812 37.6743 -0.340812 36.2972 1.03171Z" fill="white"/>
<path d="M37.4065 2.13644L20.3286 19.211L38.7922 37.671L55.87 20.5965C56.6341 19.8325 56.6341 18.5938 55.87 17.8255L40.1736 2.13644C39.4095 1.37249 38.1706 1.37249 37.4021 2.13644H37.4065ZM43.3552 19.2153C43.3552 20.4756 42.8415 21.6194 42.017 22.4395C41.1881 23.2682 40.0527 23.7775 38.7922 23.7775C37.5317 23.7775 36.3877 23.2595 35.5674 22.4395C34.7386 21.6108 34.2292 20.4756 34.2292 19.2153C34.2292 17.955 34.7429 16.8199 35.5631 15.9912C36.392 15.1625 37.5273 14.6532 38.7922 14.6532C40.0571 14.6532 41.1881 15.1668 42.017 15.9912C42.8372 16.8112 43.3552 17.955 43.3552 19.2153Z" fill="#FF0000"/>
<path d="M2.13704 37.3992C1.37294 38.1632 1.37294 39.4019 2.13704 40.1702L17.8335 55.8636C18.5976 56.6275 19.8365 56.6275 20.6049 55.8636L37.6828 38.789L19.2192 20.329L2.13704 37.3992ZM17.3197 38.7847C17.3197 40.045 16.806 41.1888 15.9815 42.0088C15.1526 42.8375 14.0173 43.3468 12.7567 43.3468C11.4962 43.3468 10.3522 42.8289 9.53197 42.0088C8.71175 41.1888 8.19372 40.045 8.19372 38.7847C8.19372 37.5244 8.70743 36.3893 9.52765 35.5606C10.3565 34.7319 11.4919 34.2226 12.7567 34.2226C14.0173 34.2226 15.1526 34.7362 15.9815 35.5606C16.8017 36.3806 17.3197 37.5244 17.3197 38.7847ZM30.249 38.7761C30.249 40.0364 29.7353 41.1802 28.9107 42.0002C28.0819 42.8289 26.9465 43.3382 25.686 43.3382C24.4254 43.3382 23.2814 42.8203 22.4612 42.0002C21.641 41.1802 21.123 40.0364 21.123 38.7761C21.123 37.5158 21.6367 36.3806 22.4569 35.5519C23.2858 34.7232 24.4211 34.2139 25.686 34.2139C26.9465 34.2139 28.0819 34.7276 28.9107 35.5519C29.731 36.372 30.249 37.5158 30.249 38.7761Z" fill="#0090E2"/>
<path d="M274.195 28.8057C274.195 30.1998 275.3 31.2141 276.604 31.2141C277.908 31.2141 279 30.1955 279 28.8057C279 27.4159 277.895 26.4103 276.604 26.4103C275.313 26.4103 274.195 27.4289 274.195 28.8057ZM276.604 30.83C275.503 30.83 274.653 29.9797 274.653 28.81C274.653 27.6404 275.503 26.803 276.604 26.803C277.705 26.803 278.542 27.6663 278.542 28.81C278.542 29.9538 277.692 30.83 276.604 30.83ZM277.696 28.2187C277.696 27.6749 277.377 27.4289 276.725 27.4289H275.676V30.1998H276.099V28.9956H276.57L277.299 30.1998H277.761L276.98 28.9827C277.39 28.9309 277.696 28.7151 277.696 28.2187ZM276.099 28.646V27.7785H276.669C277.148 27.7785 277.278 27.9296 277.278 28.1928C277.278 28.4993 277.109 28.646 276.6 28.646H276.103H276.099Z" fill="#0090E2"/>
</g>
<defs>
<clipPath id="clip0_14110_8801">
<rect width="279" height="58" fill="white"/>
</clipPath>
</defs>
</svg>
