<svg width="27" height="26" viewBox="0 0 27 27" fill="none" xmlns="http://www.w3.org/2000/svg">
<path d="M22.092 16.2688C21.916 17.1781 21.4294 17.998 20.7154 18.588C20.0014 19.178 19.1045 19.5014 18.1783 19.5028C17.6464 19.5042 17.1197 19.3984 16.6297 19.1914C16.1398 18.9845 15.6966 18.6809 15.3268 18.2986L13.9574 19.668C13.8834 19.7421 13.7955 19.8008 13.6987 19.8409C13.602 19.881 13.4983 19.9016 13.3936 19.9016C13.2889 19.9016 13.1852 19.881 13.0884 19.8409C12.9917 19.8008 12.9038 19.7421 12.8297 19.668L11.4604 18.2986C11.0906 18.6809 10.6474 18.9845 10.1574 19.1914C9.66744 19.3984 9.14074 19.5042 8.60887 19.5028C7.68352 19.5014 6.78738 19.1786 6.07366 18.5896C5.35995 18.0007 4.87298 17.1821 4.69601 16.2738C4.65302 16.2637 4.60829 16.2544 4.5663 16.2439C3.98858 16.1099 3.43725 15.8804 2.93499 15.5651C2.48646 16.202 2.24049 16.9594 2.22925 17.7383C2.22925 21.1663 7.22927 21.0977 13.3936 21.0977C19.5579 21.0977 24.5579 21.1664 24.5579 17.7384C24.5468 16.9654 24.3043 16.2136 23.8615 15.5799C23.3139 15.906 22.7159 16.1388 22.092 16.2688Z" fill="#0090E2"/>
<path d="M8.60497 18.7053C9.03198 18.7056 9.45468 18.6198 9.84782 18.4531C10.241 18.2864 10.5965 18.0422 10.8931 17.7351L9.85685 16.6988C8.41773 16.7071 6.97963 16.6202 5.552 16.4385C5.75022 17.0939 6.15407 17.6682 6.70386 18.0764C7.25365 18.4846 7.9202 18.7051 8.60497 18.7053Z" fill="#0090E2"/>
<path d="M15.8884 17.7351C16.2751 18.1344 16.7594 18.4257 17.2934 18.58C17.8274 18.7343 18.3925 18.7462 18.9325 18.6147C19.4725 18.4831 19.9688 18.2126 20.372 17.8299C20.7751 17.4473 21.0712 16.9659 21.2308 16.4335C19.8024 16.6188 18.3632 16.708 16.9228 16.7006L15.8884 17.7351Z" fill="#0090E2"/>
<path d="M12.5307 16.7117C11.9911 16.7117 11.4821 16.7108 10.9956 16.7085L13.3912 19.104L15.7857 16.7096C15.2901 16.7114 14.7799 16.7117 14.2518 16.7117H12.5307Z" fill="#0090E2"/>
<path d="M12.5933 9.93326C12.5933 10.1448 12.6773 10.3476 12.8268 10.4971C12.9764 10.6467 13.1792 10.7307 13.3907 10.7307C13.6022 10.7307 13.805 10.6467 13.9546 10.4971C14.1042 10.3476 14.1882 10.1448 14.1882 9.93326V6.36562C13.9254 6.35322 13.6602 6.34473 13.3907 6.34473C13.1213 6.34473 12.8561 6.35322 12.5933 6.36562V9.93326Z" fill="#0090E2"/>
<path d="M19.7704 9.93329C19.9818 9.93305 20.1845 9.84895 20.334 9.69946C20.4835 9.54996 20.5676 9.34726 20.5678 9.13584V7.80513C20.0473 7.58088 19.5148 7.38537 18.9729 7.21948V9.13584C18.9731 9.34726 19.0572 9.54996 19.2067 9.69946C19.3562 9.84895 19.5589 9.93305 19.7704 9.93329Z" fill="#0090E2"/>
<path d="M21.3681 8.20845V9.13593C21.3681 9.55892 21.2001 9.96459 20.901 10.2637C20.6019 10.5628 20.1962 10.7308 19.7732 10.7308C19.3502 10.7308 18.9445 10.5628 18.6454 10.2637C18.3463 9.96459 18.1783 9.55892 18.1783 9.13593V6.98891C17.1325 6.71225 16.0656 6.52267 14.9885 6.42212V9.93338C14.9885 10.3564 14.8205 10.762 14.5213 11.0611C14.2222 11.3603 13.8166 11.5283 13.3936 11.5283C12.9706 11.5283 12.5649 11.3603 12.2658 11.0611C11.9667 10.762 11.7987 10.3564 11.7987 9.93338V6.42212C10.7216 6.52267 9.65467 6.71225 8.60887 6.98891V9.13593C8.60887 9.55892 8.44083 9.96459 8.14173 10.2637C7.84263 10.5628 7.43696 10.7308 7.01396 10.7308C6.59097 10.7308 6.1853 10.5628 5.88619 10.2637C5.58709 9.96459 5.41906 9.55892 5.41906 9.13593V8.20845C3.4474 9.32823 2.22925 10.8632 2.22925 12.5549C2.22925 15.9829 5.81778 15.9143 13.3936 15.9143C20.9694 15.9143 24.5579 15.983 24.5579 12.555C24.5579 10.8632 23.3398 9.32823 21.3681 8.20845Z" fill="#0090E2"/>
<path d="M7.01132 9.93329C7.22274 9.93305 7.42544 9.84895 7.57494 9.69946C7.72443 9.54996 7.80853 9.34726 7.80877 9.13584V7.21948C7.26682 7.38537 6.73439 7.58088 6.21387 7.80513V9.13584C6.21411 9.34726 6.29821 9.54996 6.4477 9.69946C6.5972 9.84895 6.7999 9.93305 7.01132 9.93329Z" fill="#0090E2"/>
</svg>
