<svg width="27" height="27" viewBox="0 0 27 27" fill="none" xmlns="http://www.w3.org/2000/svg">
<g clip-path="url(#clip0_14110_9955)">
<path d="M13.3931 7.95446C10.3631 7.95446 7.89822 10.4193 7.89822 13.4493C7.89822 16.4793 10.3631 18.9442 13.3931 18.9442C16.4231 18.9442 18.8879 16.4793 18.8879 13.4493C18.8879 10.4193 16.4231 7.95446 13.3931 7.95446ZM13.3931 7.95446C10.3631 7.95446 7.89822 10.4193 7.89822 13.4493C7.89822 16.4793 10.3631 18.9442 13.3931 18.9442C16.4231 18.9442 18.8879 16.4793 18.8879 13.4493C18.8879 10.4193 16.4231 7.95446 13.3931 7.95446ZM22.8652 0H3.92099C1.75445 0 -0.00390625 1.75835 -0.00390625 3.9249V22.8691C-0.00390625 25.0356 1.75445 26.794 3.92099 26.794H22.8652C25.0317 26.794 26.7901 25.0356 26.7901 22.8691V3.9249C26.7901 1.75835 25.0317 0 22.8652 0ZM13.3931 20.5141C9.49963 20.5141 6.32826 17.3428 6.32826 13.4493C6.32826 9.55576 9.49963 6.3845 13.3931 6.3845C17.2865 6.3845 20.4579 9.55576 20.4579 13.4493C20.4579 17.3428 17.2865 20.5141 13.3931 20.5141ZM22.0278 6.3845C21.1644 6.3845 20.4579 5.67802 20.4579 4.81454C20.4579 3.95106 21.1644 3.24458 22.0278 3.24458C22.8913 3.24458 23.5978 3.95106 23.5978 4.81454C23.5978 5.67802 22.8913 6.3845 22.0278 6.3845ZM13.3931 7.95446C10.3631 7.95446 7.89822 10.4193 7.89822 13.4493C7.89822 16.4793 10.3631 18.9442 13.3931 18.9442C16.4231 18.9442 18.8879 16.4793 18.8879 13.4493C18.8879 10.4193 16.4231 7.95446 13.3931 7.95446ZM13.3931 7.95446C10.3631 7.95446 7.89822 10.4193 7.89822 13.4493C7.89822 16.4793 10.3631 18.9442 13.3931 18.9442C16.4231 18.9442 18.8879 16.4793 18.8879 13.4493C18.8879 10.4193 16.4231 7.95446 13.3931 7.95446ZM13.3931 7.95446C10.3631 7.95446 7.89822 10.4193 7.89822 13.4493C7.89822 16.4793 10.3631 18.9442 13.3931 18.9442C16.4231 18.9442 18.8879 16.4793 18.8879 13.4493C18.8879 10.4193 16.4231 7.95446 13.3931 7.95446Z" fill="#FF0000"/>
</g>
<defs>
<clipPath id="clip0_14110_9955">
<rect width="26.794" height="26.794" fill="white"/>
</clipPath>
</defs>
</svg>