<svg width="27" height="26" viewBox="0 0 119 118" fill="none" xmlns="http://www.w3.org/2000/svg">
<path d="M87.3627 72.9226C86.0691 71.913 85.3564 71.3568 83.6089 71.3568C81.862 71.3568 81.1496 71.913 79.8562 72.9224C78.208 74.209 75.9507 75.971 71.786 75.971C67.6216 75.971 65.364 74.209 63.7158 72.9226C62.4224 71.913 61.7098 71.3568 59.9629 71.3568C59.7989 71.3568 59.6467 71.3632 59.4997 71.3729C58.08 71.4666 57.3824 72.0076 56.2103 72.9224C54.5621 74.209 52.3047 75.971 48.1403 75.971C43.9758 75.971 41.7185 74.209 40.0705 72.9224C38.7771 71.913 38.0647 71.3568 36.3179 71.3568C34.5708 71.3568 33.8584 71.913 32.565 72.9226C30.9168 74.209 28.6595 75.971 24.495 75.971C20.3305 75.971 18.0732 74.209 16.425 72.9224C15.1316 71.913 14.419 71.3568 12.6724 71.3568C12.5383 71.3568 12.4064 71.3475 12.2764 71.333V83.0129H106.724V71.3775C105.351 71.4846 104.657 72.0228 103.505 72.9226C101.856 74.209 99.5986 75.971 95.4339 75.971C91.2684 75.9707 89.0111 74.209 87.3627 72.9226Z" fill="#0090E2"/>
<path d="M106.724 56.5576C104.793 58.0316 101.764 59.9896 96.8304 59.9896C91.2829 59.9896 88.1415 57.5134 86.2646 56.0341C85.0603 55.085 85.0603 55.085 84.3853 55.085C83.7111 55.085 83.7111 55.085 82.5075 56.0339C80.6306 57.5134 77.4896 59.9898 71.9422 59.9898C66.395 59.9898 63.2535 57.5136 61.3769 56.0341C60.1731 55.0852 60.1731 55.0852 59.4993 55.0852H59.4127C58.822 55.087 58.7708 55.1272 57.6207 56.0339C55.7438 57.5134 52.6028 59.9898 47.0554 59.9898C41.508 59.9898 38.3668 57.5134 36.4901 56.0339C35.2865 55.085 35.2865 55.085 34.6125 55.085C33.9382 55.085 33.9382 55.085 32.7344 56.0339C30.8577 57.5134 27.7165 59.9898 22.1691 59.9898C17.2368 59.9898 14.2078 58.0327 12.2773 56.5585V64.4589C12.4074 64.4444 12.5393 64.4352 12.6733 64.4352C16.8378 64.4352 19.0951 66.1971 20.7433 67.4838C22.0367 68.4931 22.7494 69.0494 24.496 69.0494C26.2428 69.0494 26.9555 68.4931 28.2489 67.4835C29.8973 66.1971 32.1546 64.4352 36.3191 64.4352C40.4836 64.4352 42.7409 66.1971 44.3891 67.4838C45.6825 68.4931 46.3949 69.0494 48.1415 69.0494C49.8883 69.0494 50.6008 68.4931 51.8941 67.4835C53.4795 66.2462 55.6333 64.5736 59.5007 64.4474C59.654 64.4423 59.805 64.4352 59.9639 64.4352C64.1284 64.4352 66.3859 66.1971 68.0341 67.4835C69.3275 68.4931 70.0401 69.0494 71.787 69.0494C73.5338 69.0494 74.2465 68.4931 75.5399 67.4835C77.1881 66.1971 79.4454 64.4352 83.6099 64.4352C87.7746 64.4352 90.0324 66.1971 91.6806 67.4835C92.9742 68.4931 93.6868 69.0494 95.4341 69.0494C97.1817 69.0494 97.8943 68.4931 99.188 67.4835C100.764 66.2536 102.901 64.5934 106.724 64.4492V56.5576Z" fill="#0090E2"/>
<path d="M11.1244 48.2556C15.988 48.9278 16.4519 53.0686 22.1685 53.0686C28.3904 53.0686 28.3904 48.164 34.6121 48.164C40.8336 48.164 40.8336 53.0686 47.0551 53.0686C53.2765 53.0686 53.2765 48.164 59.4982 48.164H59.5003C65.7199 48.1651 65.7208 53.0686 71.9418 53.0686C78.1635 53.0686 78.1635 48.164 84.3852 48.164C90.6078 48.164 90.6078 53.0686 96.8302 53.0686C102.548 53.0686 103.012 48.9278 107.876 48.2556C108.677 48.1448 109.275 47.4681 109.275 46.6664V40.82C109.275 36.3087 104.564 33.2908 100.432 35.1787C99.4782 35.6145 98.3365 35.902 96.8302 35.902C90.6078 35.902 90.6078 30.9971 84.3852 30.9971C78.1635 30.9971 78.1635 35.902 71.9418 35.902C68.795 35.902 67.2397 34.6474 65.6662 33.4073L70.2296 31.6484C77.3555 28.902 80.8869 20.9476 78.1172 13.8816C77.943 13.4366 77.4376 13.216 76.9888 13.3891L68.0617 16.8296C63.4842 18.5939 60.3937 22.5081 59.5003 26.9546C58.6069 22.5081 55.5164 18.5939 50.9389 16.8296L42.0118 13.3891C41.563 13.216 41.0579 13.4366 40.8834 13.8816C38.1137 20.9476 41.6451 28.902 48.771 31.6484L53.3319 33.4061C51.7579 34.6467 50.2028 35.9017 47.0553 35.9017C40.8338 35.9017 40.8338 30.9968 34.6124 30.9968C28.3907 30.9968 28.3907 35.9017 22.1687 35.9017C20.6634 35.9017 19.5224 35.6147 18.5692 35.1794C14.4368 33.2922 9.72559 36.3092 9.72559 40.8205V46.6664C9.72535 47.4681 10.3235 48.1448 11.1244 48.2556Z" fill="#0090E2"/>
<path d="M117.135 89.9341H1.86455C0.756604 89.9341 -0.122172 90.8901 0.0139371 91.9805C0.939711 99.3925 6.85173 104.67 14.0066 104.67H104.993C112.148 104.67 118.06 99.3925 118.986 91.9805C119.122 90.8901 118.243 89.9341 117.135 89.9341Z" fill="#0090E2"/>
</svg>
