<svg width="175" height="175" viewBox="0 0 175 175" fill="none" xmlns="http://www.w3.org/2000/svg">
<g clip-path="url(#clip0_5652_20998)">
<path d="M73.8422 44.147C73.8395 44.1867 73.8362 44.2263 73.8362 44.2665C73.8363 44.3084 73.8394 44.3494 73.8422 44.3905L73.8407 80.8447C73.8407 81.4434 74.1601 81.9965 74.6784 82.2957C75.1969 82.5951 75.8356 82.5952 76.3541 82.2958L113.783 60.6888C114.584 60.2261 114.859 59.2014 114.396 58.3998C110.457 51.5756 104.788 45.8974 98.0017 41.9796C91.1759 38.0387 83.4016 35.9517 75.5197 35.9438C75.0749 35.9434 74.6484 36.1197 74.3338 36.4339C74.0193 36.7481 73.8425 37.1746 73.8425 37.6191L73.8422 44.147ZM77.1916 77.9428L77.1931 45.9911C88.4254 46.5475 98.779 52.5277 104.859 61.9711L77.1916 77.9428ZM96.3261 44.8817C102.122 48.2278 107.038 52.9635 110.627 58.6412L107.764 60.2941C101.083 49.8194 89.6194 43.1979 77.1932 42.6363L77.1934 39.3306C83.911 39.6086 90.4927 41.5138 96.3261 44.8817Z" fill="#0090E2"/>
<path d="M82.3922 68.9344C83.1935 69.3971 84.2181 69.1225 84.6808 68.3212C85.1434 67.5199 84.8688 66.4953 84.0676 66.0327C83.2663 65.5701 82.2417 65.8446 81.779 66.6459C81.3164 67.4472 81.591 68.4718 82.3922 68.9344Z" fill="#0090E2"/>
<path d="M93.9252 60.0864C94.3234 58.6003 94.1191 57.0481 93.35 55.7156C92.8448 54.8404 92.1169 54.1116 91.2453 53.6084C89.467 52.5817 87.2587 52.5811 85.4819 53.6069C84.1494 54.376 83.1963 55.6181 82.798 57.1041C82.3997 58.5902 82.604 60.1424 83.3732 61.4749C83.8784 62.3501 84.6063 63.0789 85.4779 63.5821C87.2561 64.6088 89.4644 64.6094 91.2412 63.5836C92.5736 62.8147 93.527 61.5727 93.9252 60.0864ZM89.5658 60.6816C88.8225 61.1107 87.8982 61.1103 87.1533 60.6802C86.7906 60.4708 86.4867 60.1664 86.2753 59.7998C85.9537 59.2426 85.8683 58.5933 86.0346 57.9719C86.2013 57.3504 86.6 56.831 87.1571 56.5093C87.9004 56.0802 88.8247 56.0806 89.5696 56.5107C89.9324 56.7201 90.2362 57.0245 90.4476 57.3911C90.7693 57.9483 90.8546 58.5976 90.6883 59.219C90.5219 59.8406 90.1233 60.3598 89.5658 60.6816Z" fill="#0090E2"/>
<path d="M29.6458 60.6815L35.2977 63.9448C35.3311 63.9674 35.364 63.9903 35.3994 64.0108C35.4368 64.0323 35.4738 64.0499 35.5107 64.0678L67.0793 82.296C67.5978 82.5954 68.2365 82.5955 68.755 82.2961C69.2735 81.9967 69.5929 81.4436 69.5928 80.845L69.5947 37.6267C69.5947 37.1822 69.4182 36.756 69.1041 36.4418C68.7901 36.1277 68.3638 35.951 67.9193 35.951C59.8992 35.9506 52.0274 38.0912 45.1551 42.1413C38.485 46.0721 32.9104 51.6912 29.0333 58.3913C28.8107 58.7761 28.75 59.2337 28.8649 59.6633C28.98 60.0927 29.2606 60.4591 29.6458 60.6815ZM66.2435 39.3362L66.2435 42.6409C62.9812 42.7853 59.7462 43.3476 56.6047 44.3256C55.7214 44.6005 55.2278 45.5399 55.5029 46.4234C55.6333 46.842 55.9127 47.173 56.2646 47.3762C56.6556 47.602 57.136 47.6698 57.6007 47.5252C60.4188 46.6481 63.3189 46.139 66.2432 45.9969L66.2415 77.9431L38.5715 61.966C41.8238 56.9253 46.3277 52.7992 51.691 49.9772C52.5099 49.5464 52.8247 48.5332 52.3937 47.7143C51.9625 46.895 50.9496 46.5808 50.1307 47.0116C44.2062 50.1287 39.2369 54.6997 35.6658 60.2881L32.8035 58.6353C40.094 47.1395 52.6576 39.8888 66.2435 39.3362Z" fill="#FF0000"/>
<path d="M44.381 62.2826C45.1823 62.7452 46.2069 62.4707 46.6695 61.6694C47.1322 60.8681 46.8576 59.8435 46.0563 59.3809C45.255 58.9182 44.2304 59.1928 43.7678 59.9941C43.3052 60.7954 43.5797 61.82 44.381 62.2826Z" fill="#FF0000"/>
<path d="M57.1662 69.4059C57.9675 69.8685 58.9921 69.594 59.4547 68.7927C59.9173 67.9914 59.6428 66.9668 58.8415 66.5042C58.0402 66.0415 57.0156 66.3161 56.553 67.1174C56.0903 67.9186 56.3649 68.9433 57.1662 69.4059Z" fill="#FF0000"/>
<path d="M33.3849 107.102L64.9554 88.8767C65.4739 88.5773 65.7933 88.0242 65.7932 87.4256C65.7934 86.827 65.474 86.274 64.9555 85.9746L27.5284 64.3638C27.1436 64.1416 26.6862 64.0813 26.2569 64.1962C25.8277 64.3113 25.4617 64.5919 25.2395 64.9767C21.2292 71.9223 19.147 79.8096 19.2183 87.7863C19.2875 95.528 21.3664 103.166 25.2304 109.873C25.3789 110.131 25.5916 110.342 25.8445 110.488C25.97 110.56 26.1054 110.617 26.2478 110.655C26.6772 110.77 27.135 110.71 27.52 110.488L33.199 107.21C33.2259 107.196 33.2536 107.185 33.2803 107.17C33.3167 107.149 33.3508 107.125 33.3849 107.102ZM33.095 103.4C27.9607 93.3948 27.9628 81.438 33.1012 71.451L60.7668 87.4255L33.095 103.4ZM27.3264 106.73C21.0163 94.6686 21.0187 80.1628 27.3331 68.1205L30.1957 69.7734C24.465 80.7966 24.4625 94.0354 30.1893 105.077L27.3264 106.73Z" fill="#FF0000"/>
<path d="M47.6012 91.1113C48.4026 91.574 49.4273 91.2994 49.89 90.498C50.3527 89.6967 50.0781 88.6719 49.2767 88.2092C48.4753 87.7465 47.4506 88.0211 46.9879 88.8225C46.5252 89.6239 46.7998 90.6486 47.6012 91.1113Z" fill="#FF0000"/>
<path d="M69.591 130.704C69.5938 130.665 69.5971 130.625 69.5971 130.585C69.5971 130.543 69.594 130.502 69.5909 130.461L69.5926 94.0067C69.5926 93.4079 69.2731 92.8549 68.7548 92.5556C68.2363 92.2563 67.5977 92.2562 67.0791 92.5555L29.6503 114.163C28.8489 114.625 28.5743 115.65 29.0369 116.452C32.9762 123.275 38.6455 128.953 45.4318 132.872C52.2579 136.813 60.032 138.9 67.9138 138.908C68.3585 138.908 68.7851 138.732 69.0996 138.418C69.4141 138.103 69.591 137.677 69.5909 137.232L69.591 130.704ZM47.1089 129.971C41.3113 126.623 36.3953 121.888 32.806 116.21L35.6673 114.558C38.3314 118.742 41.7502 122.325 45.8538 125.221C45.8961 125.251 45.9397 125.279 45.9838 125.304C46.7256 125.733 47.6853 125.532 48.1888 124.818C48.7223 124.062 48.542 123.017 47.7859 122.483C44.082 119.869 40.9895 116.644 38.5716 112.882L66.2416 96.9086L66.2402 128.864C61.7737 128.646 57.4371 127.58 53.3262 125.682C52.4861 125.294 51.4904 125.661 51.1026 126.501C50.7364 127.294 51.0424 128.225 51.7843 128.653C51.8286 128.679 51.8743 128.703 51.9216 128.724C56.4762 130.827 61.2855 131.997 66.24 132.217L66.2398 135.521C59.5223 135.243 52.9413 133.338 47.1089 129.971Z" fill="#FF0000"/>
<path d="M59.3322 106.865C60.1335 107.328 61.1581 107.053 61.6207 106.252C62.0833 105.45 61.8088 104.426 61.0075 103.963C60.2062 103.501 59.1816 103.775 58.719 104.576C58.2564 105.378 58.5309 106.402 59.3322 106.865Z" fill="#FF0000"/>
<path d="M114.568 115.188C114.453 114.759 114.172 114.392 113.787 114.17L108.135 110.907C108.102 110.884 108.069 110.861 108.034 110.841C107.996 110.819 107.959 110.802 107.922 110.784L76.3538 92.5555C75.8353 92.2561 75.1966 92.256 74.6781 92.5554C74.1596 92.8548 73.8402 93.4079 73.8403 94.0065L73.838 137.225C73.8381 137.669 74.0146 138.096 74.3287 138.41C74.4333 138.514 74.5499 138.603 74.6757 138.676C74.9282 138.822 75.2168 138.901 75.5133 138.901C83.5336 138.901 91.4053 136.761 98.2776 132.71C104.948 128.78 110.522 123.161 114.399 116.46C114.622 116.075 114.683 115.618 114.568 115.188ZM77.1896 135.515L77.1897 132.213C84.9512 131.864 92.5591 129.101 98.7778 124.343C99.5129 123.781 99.6527 122.73 99.0904 121.995C98.5282 121.26 97.4765 121.12 96.7416 121.682C91.1044 125.995 84.2192 128.511 77.1897 128.857L77.1914 96.9083L104.864 112.887C103.851 114.452 102.707 115.947 101.446 117.342C100.826 118.029 100.879 119.088 101.566 119.709C101.656 119.79 101.752 119.859 101.853 119.917C102.523 120.304 103.394 120.185 103.933 119.588C105.352 118.018 106.636 116.332 107.768 114.564L110.63 116.216C103.339 127.712 90.7755 134.963 77.1896 135.515Z" fill="#0090E2"/>
<path d="M81.5549 107.777C82.3561 108.24 83.3807 107.965 83.8434 107.164C84.306 106.363 84.0314 105.338 83.2302 104.875C82.4289 104.413 81.4043 104.687 80.9416 105.489C80.479 106.29 80.7536 107.314 81.5549 107.777Z" fill="#0090E2"/>
<path d="M80.7316 125.024C81.5329 125.487 82.5575 125.212 83.0201 124.411C83.4827 123.61 83.2082 122.585 82.4069 122.122C81.6056 121.66 80.581 121.934 80.1184 122.736C79.6558 123.537 79.9303 124.561 80.7316 125.024Z" fill="#0090E2"/>
<path d="M107.179 79.2161C107.98 79.6788 109.005 79.4042 109.468 78.6028C109.93 77.8014 109.656 76.7766 108.854 76.314C108.053 75.8513 107.028 76.1259 106.566 76.9272C106.103 77.7286 106.377 78.7534 107.179 79.2161Z" fill="#0090E2"/>
<path d="M110.048 67.7494L78.4778 85.9747C77.9593 86.2741 77.6399 86.8272 77.64 87.4258C77.6398 88.0244 77.9592 88.5774 78.4778 88.8768L115.905 110.488C116.29 110.71 116.747 110.77 117.177 110.655C117.606 110.54 117.972 110.26 118.194 109.875C122.204 102.929 124.286 95.0419 124.215 87.0652C124.146 79.3235 122.067 71.686 118.203 64.9784C117.981 64.5929 117.615 64.3118 117.186 64.1965C116.756 64.0811 116.298 64.1411 115.913 64.3635L110.26 67.6268C110.225 67.6443 110.188 67.6613 110.153 67.6816C110.117 67.7027 110.082 67.726 110.048 67.7494ZM110.338 71.4512C115.473 81.4566 115.47 93.4134 110.332 103.4L82.6664 87.4259L110.338 71.4512ZM116.107 68.1213C122.417 80.1828 122.414 94.6886 116.1 106.731L113.238 105.078C118.968 94.0548 118.971 80.8159 113.244 69.774L116.107 68.1213Z" fill="#0090E2"/>
<path d="M52.1947 63.5861C53.0661 64.0892 54.0609 64.3553 55.0714 64.3552C56.6099 64.3552 58.0562 63.7562 59.1443 62.6682C60.2323 61.5804 60.8314 60.1339 60.8314 58.5955C60.8315 56.5436 59.727 54.6311 57.9486 53.6043C57.0772 53.1012 56.0824 52.8351 55.0719 52.8352C53.5334 52.8352 52.0869 53.434 50.9988 54.5221C49.9108 55.6099 49.3117 57.0563 49.3116 58.5948C49.3115 60.6468 50.4163 62.5593 52.1947 63.5861ZM53.3682 56.892C53.8232 56.437 54.4281 56.1865 55.0715 56.1865C55.4946 56.1865 55.9101 56.2974 56.2728 56.5068C57.0177 56.9369 57.4804 57.7372 57.4802 58.5956C57.4802 59.239 57.2295 59.8439 56.7746 60.2989C56.3195 60.7538 55.7146 61.0043 55.0712 61.0044C54.6482 61.0044 54.2327 60.8935 53.8699 60.684C53.125 60.254 52.6623 59.4536 52.6624 58.5952C52.6627 57.9517 52.9134 57.3468 53.3682 56.892Z" fill="#FF0000"/>
<path d="M32.8625 88.9162C33.2607 90.4024 34.2137 91.6444 35.546 92.4139C38.2964 94.0019 41.826 93.0563 43.4141 90.306C44.1834 88.9735 44.3879 87.4215 43.9899 85.9354C43.5916 84.4492 42.6387 83.2072 41.306 82.4378C38.5556 80.8498 35.026 81.7954 33.4381 84.5458C32.6687 85.878 32.4644 87.4301 32.8625 88.9162ZM39.6308 85.3398C40.188 85.6615 40.5866 86.1811 40.7533 86.8025C40.9196 87.424 40.8343 88.0731 40.5123 88.6304C39.8483 89.7806 38.3721 90.1761 37.2219 89.5121C36.6647 89.1903 36.2659 88.6707 36.0996 88.0491C35.933 87.4275 36.0186 86.7784 36.3403 86.2211C37.0044 85.0709 38.4804 84.6756 39.6308 85.3398Z" fill="#FF0000"/>
<path d="M57.9512 121.244C59.2837 120.475 60.2369 119.233 60.6351 117.747C61.0334 116.261 60.8291 114.709 60.0599 113.376C59.5548 112.501 58.8268 111.772 57.9552 111.269C56.177 110.242 53.9687 110.242 52.1919 111.268C50.8595 112.036 49.9062 113.279 49.508 114.765C49.1097 116.251 49.314 117.803 50.0832 119.136C50.5883 120.011 51.3163 120.74 52.1879 121.243C53.9659 122.269 56.1742 122.27 57.9512 121.244ZM56.2756 118.342C55.5323 118.771 54.608 118.771 53.8631 118.341C53.5003 118.131 53.1965 117.827 52.9851 117.46C52.6634 116.903 52.5781 116.254 52.7444 115.632C52.911 115.011 53.3097 114.492 53.8669 114.17C54.6102 113.741 55.5345 113.741 56.2794 114.171C56.6421 114.381 56.946 114.685 57.1574 115.052C57.479 115.609 57.5644 116.258 57.3981 116.88C57.2318 117.501 56.833 118.02 56.2756 118.342Z" fill="#FF0000"/>
<path d="M91.2384 111.265C90.367 110.762 89.3722 110.496 88.3617 110.496C86.8232 110.496 85.3769 111.095 84.2888 112.183C83.2008 113.271 82.6017 114.717 82.6017 116.256C82.6016 118.308 83.7061 120.22 85.4845 121.247C86.3559 121.75 87.3507 122.016 88.3612 122.016C89.8997 122.016 91.3462 121.417 92.4343 120.329C93.5223 119.241 94.1214 117.795 94.1215 116.256C94.1216 114.204 93.0169 112.292 91.2384 111.265ZM90.0649 117.959C89.6099 118.414 89.005 118.665 88.3616 118.665C87.9385 118.665 87.523 118.554 87.1603 118.344C86.4154 117.914 85.9527 117.114 85.9529 116.256C85.9529 115.612 86.2036 115.007 86.6585 114.552C87.1136 114.097 87.7185 113.847 88.3618 113.847C88.7849 113.847 89.2004 113.958 89.5632 114.167C90.3081 114.597 90.7708 115.398 90.7707 116.256C90.7704 116.9 90.5197 117.504 90.0649 117.959Z" fill="#0090E2"/>
<path d="M110.571 85.9353C110.173 84.4491 109.22 83.207 107.887 82.4374C105.137 80.8494 101.607 81.795 100.019 84.5454C99.2498 85.8779 99.0454 87.4299 99.4434 88.916C99.8416 90.4022 100.795 91.6443 102.127 92.4136C104.877 94.0015 108.407 93.0559 109.995 90.3056C110.765 88.9735 110.969 87.4214 110.571 85.9353ZM103.803 89.5118C103.245 89.1899 102.847 88.6705 102.68 88.049C102.514 87.4275 102.599 86.7785 102.921 86.2212C103.585 85.071 105.061 84.6754 106.212 85.3396C106.769 85.6613 107.168 86.1809 107.334 86.8024C107.5 87.4241 107.415 88.0732 107.093 88.6304C106.429 89.7805 104.953 90.1758 103.803 89.5118Z" fill="#0090E2"/>
</g>
<defs>
<clipPath id="clip0_5652_20998">
<rect width="105" height="105" fill="white" transform="translate(52.5 15.7094) rotate(30)"/>
</clipPath>
</defs>
</svg>
