<svg width="27" height="26" viewBox="0 0 64 64" fill="none" xmlns="http://www.w3.org/2000/svg">
<g id="sauce">
<path id="Vector" d="M36.6542 21.217H40.8652C41.7152 18.57 41.6722 16.286 40.7132 14.43C39.7062 12.481 37.9172 11.397 36.7762 10.874C35.6092 16.317 30.7132 19.612 26.6532 21.453C24.0722 22.623 21.2272 23.217 18.1982 23.217C13.0762 23.217 8.90918 27.384 8.90918 32.506V33.291H55.0862V32.506C55.0862 27.384 50.9192 23.217 45.7972 23.217H36.6532C36.1012 23.217 35.6532 22.769 35.6532 22.217C35.6532 21.665 36.1022 21.217 36.6542 21.217Z" fill="#0090E2"/>
<path id="Vector_2" d="M56.0859 35.29H4.02588C4.54788 45.417 12.9519 53.497 23.2069 53.497H40.7939C51.0489 53.497 59.4529 45.418 59.9749 35.29H56.0869H56.0859Z" fill="#0090E2"/>
</g>
</svg>
