<svg width="27" height="26" viewBox="0 0 87 87" fill="none" xmlns="http://www.w3.org/2000/svg">
<path fill-rule="evenodd" clip-rule="evenodd" d="M23.842 65.1231L19.7349 67.0407C16.563 68.5197 12.7857 67.1458 11.3067 63.9703L5.17686 50.8297C3.69786 47.6542 5.07173 43.8806 8.24723 42.3979L12.3544 40.4839L23.842 65.1231ZM16.8784 37.3229L42.9312 13.9272C44.4247 12.5859 46.4692 12.0313 48.4376 12.4337C50.406 12.8361 52.0699 14.1447 52.9181 15.9681L68.6977 49.8074C69.546 51.6308 69.4844 53.7478 68.5274 55.5132C67.5667 57.2822 65.8304 58.4893 63.8402 58.7721L29.1744 63.6876L16.8784 37.3229Z" fill="white"/>
<path fill-rule="evenodd" clip-rule="evenodd" d="M78.5505 21.6157C79.9099 20.9814 81.5303 21.5722 82.1646 22.9316C82.7954 24.291 82.2081 25.9077 80.8488 26.5421L74.2766 29.6089C72.9173 30.2432 71.2969 29.6524 70.6625 28.293C70.0318 26.9336 70.619 25.3132 71.9784 24.6789L78.5505 21.6157Z" fill="white"/>
<path fill-rule="evenodd" clip-rule="evenodd" d="M80.5588 43.5544C81.969 44.0692 82.6976 45.6316 82.1828 47.0417C81.6717 48.4518 80.1093 49.1768 78.6992 48.6657L71.8878 46.1862C70.4777 45.6714 69.7491 44.1127 70.2638 42.7026C70.775 41.2924 72.3373 40.5638 73.7475 41.0749L80.5588 43.5544Z" fill="white"/>
<path fill-rule="evenodd" clip-rule="evenodd" d="M60.3528 9.32338C60.8675 7.91325 62.4299 7.18463 63.84 7.69938C65.2501 8.2105 65.9751 9.77288 65.464 11.183L62.9845 17.9944C62.4698 19.4045 60.911 20.1331 59.5009 19.622C58.0908 19.1073 57.3621 17.5449 57.8733 16.1348L60.3528 9.32338Z" fill="white"/>
<path fill-rule="evenodd" clip-rule="evenodd" d="M42.0282 65.5254L43.6051 68.9075C45.0878 72.083 43.7139 75.8566 40.5384 77.3393L37.2505 78.869C34.0786 80.3516 30.3014 78.9778 28.8224 75.8023L25.375 68.4109L26.9845 67.6605L42.0282 65.5254Z" fill="white"/>
</svg>
