<svg width="32" height="32" viewBox="0 0 32 32" fill="none" xmlns="http://www.w3.org/2000/svg">
<path d="M11.7498 3.51499C11.041 3.44179 10.3848 3.92494 10.2054 4.69115L9.55786 7.43878C17.7656 7.7072 23.3176 13.8125 23.6676 22.9094L26.157 22.1383C26.8439 21.9236 27.2727 21.1769 27.1895 20.3863C26.2751 11.5627 19.7081 4.34953 11.7498 3.51499ZM9.19035 8.98096L4.82399 27.4969C4.7916 27.6316 4.79175 27.7735 4.8244 27.9082C4.85706 28.0428 4.92106 28.1654 5.00992 28.2635C5.09878 28.3617 5.20933 28.4318 5.33036 28.4669C5.45138 28.502 5.57857 28.5007 5.69901 28.4632L22.2807 23.334C22.0925 14.7983 16.8949 9.07857 9.19035 8.98096ZM10.3979 23.8074C10.121 23.8074 9.85029 23.7158 9.62006 23.5442C9.38982 23.3726 9.21038 23.1287 9.10441 22.8433C8.99845 22.558 8.97072 22.244 9.02474 21.941C9.07876 21.6381 9.2121 21.3598 9.4079 21.1414C9.6037 20.923 9.85316 20.7743 10.1247 20.714C10.3963 20.6537 10.6778 20.6847 10.9336 20.8029C11.1895 20.9211 11.4081 21.1212 11.562 21.3781C11.7158 21.6349 11.7979 21.9368 11.7979 22.2457C11.7979 22.6599 11.6504 23.0571 11.3878 23.35C11.1253 23.6429 10.7692 23.8074 10.3979 23.8074ZM12.4979 16.3893C12.221 16.3893 11.9503 16.2977 11.7201 16.1261C11.4899 15.9545 11.3104 15.7106 11.2045 15.4252C11.0985 15.1399 11.0708 14.8259 11.1248 14.5229C11.1788 14.22 11.3122 13.9417 11.508 13.7233C11.7038 13.5049 11.9532 13.3562 12.2248 13.2959C12.4964 13.2356 12.7779 13.2666 13.0337 13.3848C13.2895 13.503 13.5082 13.7031 13.662 13.96C13.8159 14.2168 13.898 14.5187 13.898 14.8276C13.898 15.2418 13.7505 15.639 13.4879 15.9319C13.2253 16.2248 12.8692 16.3893 12.4979 16.3893ZM17.048 21.4648C16.7711 21.4648 16.5005 21.3732 16.2702 21.2016C16.04 21.03 15.8605 20.7861 15.7546 20.5008C15.6486 20.2154 15.6209 19.9014 15.6749 19.5985C15.7289 19.2955 15.8623 19.0173 16.0581 18.7988C16.2539 18.5804 16.5033 18.4317 16.7749 18.3714C17.0465 18.3112 17.328 18.3421 17.5838 18.4603C17.8396 18.5785 18.0583 18.7787 18.2121 19.0355C18.366 19.2923 18.4481 19.5943 18.4481 19.9031C18.4481 20.3173 18.3006 20.7146 18.038 21.0074C17.7755 21.3003 17.4194 21.4648 17.048 21.4648Z" fill="#0090E2"/>
</svg>