<svg width="23" height="21" viewBox="0 0 23 21" fill="none" xmlns="http://www.w3.org/2000/svg">
<path d="M9.73563 8.06782C9.7805 8.33447 9.80657 8.59798 9.81466 8.85769C10.3129 8.85061 10.5494 8.76176 10.8448 8.65011C11.2095 8.51231 11.623 8.35607 12.409 8.35607C13.1951 8.35607 13.6085 8.51231 13.9733 8.65011C14.2812 8.76645 14.5245 8.85836 15.0678 8.85836C15.6111 8.85836 15.8543 8.76645 16.1623 8.65011C16.5271 8.51227 16.9405 8.35607 17.7266 8.35607C18.5127 8.35607 18.9262 8.51227 19.291 8.65011C19.5989 8.76645 19.8422 8.85836 20.3855 8.85836C20.9289 8.85836 21.1721 8.76645 21.4801 8.65011C21.7796 8.53692 22.1124 8.41156 22.6568 8.37022V5.56641H8.83203C9.22631 6.33633 9.59394 7.22581 9.73563 8.06782Z" fill="#0090E2"/>
<path d="M10.2969 20.0494H22.6549V17.5928H11.2841L10.2969 20.0494Z" fill="#0090E2"/>
<path d="M12.1573 15.4201L11.8184 16.2636H22.655V14.2188H12.1515L12.1573 15.4201Z" fill="#0090E2"/>
<path d="M21.9522 9.89379C21.5874 10.0316 21.174 10.1878 20.3878 10.1878C19.6017 10.1878 19.1883 10.0316 18.8235 9.89379C18.5156 9.77746 18.2723 9.68555 17.729 9.68555C17.1856 9.68555 16.9424 9.77746 16.6345 9.89379C16.2697 10.0316 15.8562 10.1878 15.0701 10.1878C14.2841 10.1878 13.8706 10.0316 13.5059 9.89379C13.1979 9.77746 12.9547 9.68555 12.4114 9.68555C11.8682 9.68555 11.625 9.77746 11.3171 9.89379C10.9523 10.0316 10.5389 10.1878 9.75284 10.1878C9.73257 10.1878 9.71182 10.1875 9.69071 10.187C9.68288 10.2211 9.6746 10.2551 9.66602 10.289C10.1652 10.4782 10.6239 10.7708 11.0138 11.1577C11.5041 11.6443 11.8469 12.2396 12.0214 12.8894H22.6592V9.70524C22.3652 9.7382 22.1754 9.80945 21.9522 9.89379Z" fill="#0090E2"/>
<path d="M16.6291 4.23741H19.355C19.6667 3.79446 19.835 3.26664 19.835 2.7097C19.835 1.21557 18.6195 0 17.1253 0C16.5422 0 15.9768 0.188464 15.5117 0.533399C16.2245 1.41381 16.6291 2.53194 16.6291 3.64273V4.23741Z" fill="#0090E2"/>
<path d="M8.2926 10.0389C8.32893 10.0389 8.365 10.0405 8.40119 10.0415C8.86065 8.3547 7.97908 6.81416 7.93187 6.73358L7.51622 6.02393C7.51622 6.02393 6.79927 7.1479 5.48144 7.27007C4.58235 7.35344 3.55852 7.66328 2.88684 8.58631C2.6374 8.92912 2.39171 9.42796 2.37109 10.0754C2.43698 10.0717 2.50327 10.0697 2.56996 10.0694L8.2926 10.0389Z" fill="#0090E2"/>
<path d="M3.07446 15.708H0.214844L1.96111 20.0493H3.07446V15.708Z" fill="#0090E2"/>
<path d="M4.40625 15.708H6.44369V20.0493H4.40625V15.708Z" fill="#0090E2"/>
<path d="M10.8704 14.379L10.868 13.8854C10.8653 13.198 10.5951 12.5529 10.1072 12.0688C9.62176 11.5871 8.97866 11.3223 8.29428 11.3223C8.29083 11.3223 8.28729 11.3223 8.28384 11.3223L2.57659 11.3528C1.1684 11.3582 0.012523 12.5152 4.42508e-05 13.9319L0 13.9365L0.00221254 14.379H10.8704Z" fill="#0090E2"/>
<path d="M7.77539 15.708V20.0493H8.91755L10.6621 15.708H7.77539Z" fill="#0090E2"/>
<path d="M15.3486 4.25584V3.64275C15.3486 2.75649 14.9972 1.86095 14.3845 1.18572C13.7363 0.47147 12.8848 0.078125 11.9868 0.078125H9.47852V0.912474C9.47852 1.81037 9.82894 2.65206 10.4652 3.28241C11.0988 3.91016 11.9423 4.25584 12.8403 4.25584H15.3486Z" fill="#0090E2"/>
</svg>
