<svg width="20" height="21" viewBox="0 0 20 21" fill="none" xmlns="http://www.w3.org/2000/svg">
<g clip-path="url(#clip0_767_2791)">
<path d="M17.6562 2.24316H16.7188V0.680664H15.1562V2.24316H4.84375V0.680664H3.28125V2.24316H2.34375C1.05141 2.24316 0 3.29457 0 4.58691V18.3369C0 19.6293 1.05141 20.6807 2.34375 20.6807H17.6562C18.9486 20.6807 20 19.6293 20 18.3369V4.58691C20 3.29457 18.9486 2.24316 17.6562 2.24316ZM18.4375 18.3369C18.4375 18.7677 18.087 19.1182 17.6562 19.1182H2.34375C1.91297 19.1182 1.5625 18.7677 1.5625 18.3369V8.02441H18.4375V18.3369ZM18.4375 6.46191H1.5625V4.58691C1.5625 4.15613 1.91297 3.80566 2.34375 3.80566H3.28125V5.36816H4.84375V3.80566H15.1562V5.36816H16.7188V3.80566H17.6562C18.087 3.80566 18.4375 4.15613 18.4375 4.58691V6.46191Z" fill="#006491"/>
<path d="M4.53125 9.66504H2.96875V11.2275H4.53125V9.66504Z" fill="#006491"/>
<path d="M7.65625 9.66504H6.09375V11.2275H7.65625V9.66504Z" fill="#006491"/>
<path d="M10.7812 9.66504H9.21875V11.2275H10.7812V9.66504Z" fill="#006491"/>
<path d="M13.9062 9.66504H12.3438V11.2275H13.9062V9.66504Z" fill="#006491"/>
<path d="M17.0312 9.66504H15.4688V11.2275H17.0312V9.66504Z" fill="#006491"/>
<path d="M4.53125 12.79H2.96875V14.3525H4.53125V12.79Z" fill="#006491"/>
<path d="M7.65625 12.79H6.09375V14.3525H7.65625V12.79Z" fill="#006491"/>
<path d="M10.7812 12.79H9.21875V14.3525H10.7812V12.79Z" fill="#006491"/>
<path d="M13.9062 12.79H12.3438V14.3525H13.9062V12.79Z" fill="#006491"/>
<path d="M4.53125 15.915H2.96875V17.4775H4.53125V15.915Z" fill="#006491"/>
<path d="M7.65625 15.915H6.09375V17.4775H7.65625V15.915Z" fill="#006491"/>
<path d="M10.7812 15.915H9.21875V17.4775H10.7812V15.915Z" fill="#006491"/>
<path d="M13.9062 15.915H12.3438V17.4775H13.9062V15.915Z" fill="#006491"/>
<path d="M17.0312 12.79H15.4688V14.3525H17.0312V12.79Z" fill="#006491"/>
</g>
<defs>
<clipPath id="clip0_767_2791">
<rect width="20" height="20" fill="white" transform="translate(0 0.680664)"/>
</clipPath>
</defs>
</svg>
